<svg width="57" height="44" fill="none" xmlns="http://www.w3.org/2000/svg"><path d="M34.44 33.193H24.066c-2.275 0-3.884-1.226-3.94-2.878L18.74 17.58v-.095c0-.707.666-1.273 1.609-1.273h17.92c.832 0 1.553.613 1.553 1.368v.094l-1.387 12.595c-.111 1.651-1.775 2.925-3.995 2.925zM20.96 18.098l1.331 12.076v.094c0 .708.888 1.038 1.72 1.038h10.375c.832 0 1.72-.33 1.72-1.085v-.094l1.331-12.03H20.96z" fill="#fff"/><path d="M34.669 17.754c-.688 0-1.25-.454-1.25-1.009v-1.312c0-1.917-1.624-3.38-3.748-3.38s-3.748 1.463-3.748 3.38v1.312c0 .555-.562 1.01-1.249 1.01s-1.25-.455-1.25-1.01v-1.312c0-3.027 2.75-5.398 6.247-5.398 3.498 0 6.247 2.371 6.247 5.399v1.311c0 .555-.562 1.01-1.25 1.01z" fill="#fff"/></svg>