<svg width="42" height="42" fill="none" xmlns="http://www.w3.org/2000/svg"><path d="M22.944 17.889a6.598 6.598 0 01-6.61-6.611 6.598 6.598 0 016.61-6.611 6.598 6.598 0 016.612 6.61 6.598 6.598 0 01-6.612 6.612zm0-11.188a4.558 4.558 0 00-4.576 4.577 4.558 4.558 0 004.576 4.577 4.558 4.558 0 004.577-4.577A4.558 4.558 0 0022.944 6.7z" fill="#fff"/><path d="M32.582 28H13.153c-1.025 0-1.486-1.127-1.486-1.895v-3.38c0-4.046 4.972-7.17 11.277-7.17 6.306 0 11.278 3.125 11.278 7.17v3.38c0 .615-.564 1.895-1.64 1.895zm-18.865-2.049h18.455v-3.226c0-2.765-4.204-5.121-9.228-5.121-5.023 0-9.227 2.356-9.227 5.121v3.226z" fill="#fff"/></svg>