<svg width="301" height="118" fill="none" xmlns="http://www.w3.org/2000/svg"><path fill-rule="evenodd" clip-rule="evenodd" d="M123.154 39.726c-3.822-5.035-6.138-15.04-2.09-20.726a9.072 9.072 0 013.455-2.934c1.435-.689 3.005-.981 4.594-.981.963 0 1.875.225 2.746.632.935.441 1.774 1.073 2.52 1.778.89.832 1.681 1.78 2.406 2.752a49.227 49.227 0 012.408 3.595 346.338 346.338 0 014.153 6.924c2.393-1.803 4.556-3.88 6.384-6.248-3.714-5.477-8.119-16.583-3.283-22.305 1.062-1.25 2.542-2.044 4.201-2.038 1.662.006 3.155.816 4.221 2.057 4.903 5.693.784 16.695-2.897 22.257 1.847 2.343 4.01 4.4 6.399 6.191a373.19 373.19 0 014.103-6.842 49.582 49.582 0 012.411-3.597c.731-.968 1.522-1.918 2.409-2.75.743-.707 1.585-1.336 2.517-1.777a6.415 6.415 0 012.746-.632c1.592 0 3.158.292 4.594.98a9.055 9.055 0 013.455 2.934c4.054 5.703 1.748 15.602-2.182 20.613 23.791 6.016 54.491 3.467 78.92 1.625 9.041-.676 18.343-1.505 27.405-1.505 8.703 0 13.019 8.103 14.773 15.526.852 3.581 1.213 7.331 1.203 11.001-.01 3.693-.392 7.436-1.206 11.04-1.435 6.369-5.279 16.024-13.149 16.173h-.195c-5.624 0-11.238-.089-16.862-.184-3.075-.05-6.15-.105-9.229-.108-7.729-.013-18.326-.063-25.867 1.769-2.329.568-5.586 1.543-6.151 4.245-.159.774-.114 1.593-.086 2.378.083 2.067.109 3.921-1.017 5.759-1.694 2.762-5.427 4.315-8.374 5.261-6.958 2.254-15.494 3.153-22.761 3.772-14.696 1.254-29.721 1.457-44.465 1.457-14.725 0-29.731-.203-44.405-1.454-7.245-.616-15.771-1.521-22.716-3.769-2.932-.949-6.657-2.505-8.33-5.26-1.119-1.842-1.08-3.699-.985-5.763.038-.788.08-1.61-.076-2.385-.549-2.705-3.85-3.68-6.176-4.245-7.599-1.828-18.25-1.78-26.037-1.768-3.075.003-6.15.06-9.222.108-5.969.102-11.934.187-17.902.187h-.039c-7.978 0-11.876-9.756-13.324-16.176-.81-3.604-1.197-7.344-1.206-11.04-.01-3.67.354-7.42 1.202-11.001 1.755-7.42 6.074-15.53 14.773-15.526 8.939.003 18.123.835 27.039 1.514 24.492 1.874 55.317 4.455 79.195-1.514zM20.528 69.758c0 3.27-.041 5.033-.086 6.5-.086 2.663-.606 3.229-1.384 3.394-.3.085-.603.133-.865.133-.217 0-.39.127-.39.302 0 .212.215.298.604.298 1.037 0 1.86-.13 2.855-.13 1.601 0 3.589.089 5.104.13 1.512 0 2.72.089 5.576.089 1.43 0 1.732-.089 1.901-.953.131-.727.475-3.438.475-3.743 0-.257 0-.644-.258-.644-.172 0-.303.171-.389.6-.345 1.594-.65 2.454-1.95 2.845-1.08.298-2.462.254-3.285.254-1.47 0-2.507-.083-3.155-.382-.909-.39-1.123-1.206-1.209-2.8-.044-.733 0-4.518 0-5.851v-3.14c0-.175.042-.302.303-.302.692 0 4.195.082 5.19.175 1.64.127 1.902.727 2.074 1.285.086.343.13.775.13 1.032 0 .302.042.562.26.562.175 0 .26-.127.302-.473.045-.559.045-1.419.176-2.625.13-1.248.303-2.064.303-2.28 0-.216-.087-.257-.176-.257-.172 0-.303.085-.475.343-.348.47-.995.596-1.987.647-.91.086-5.318.124-5.841.124-.217 0-.259-.175-.259-.425v-9.773c0-.26.086-.346.214-.346.086 0 4.367.044 4.932.086 2.16.13 2.549.431 2.807 1.292.13.305.261.733.303 1.375 0 .301.086.473.303.473s.303-.254.303-.642c.045-.819.086-1.508.13-2.241.087-1.073.345-1.677.345-1.934 0-.212-.086-.301-.172-.301-.175 0-.217.044-.478.127-.345.133-.823.174-1.688.215-.858.051-8.552.051-8.766.051-2.424-.044-3.589-.13-4.453-.13-.43 0-.651.086-.651.343 0 .13.262.257.561.257.345 0 .782.045 1.04.086 1.254.26 1.554.857 1.643 2.064.086 1.165.086 2.194.086 7.836v6.454h-.003zm31.106-6.451c0-5.687-.042-6.67.044-7.836.087-1.245.214-1.896 1.468-2.064.303-.044.52-.044.778-.086.345-.044.476-.13.476-.301 0-.216-.217-.302-.651-.302-1.21 0-3.72.13-3.889.13-.13 0-2.593-.13-3.936-.13-.476 0-.648.086-.648.302 0 .171.172.257.475.301.262.045.565.045.996.13.909.172 1.167.813 1.257 1.979.086 1.165.086 2.194.086 7.877v6.451c0 3.226 0 6.284-.217 7.833-.13 1.032-.262 1.896-.999 2.06a5.26 5.26 0 01-1.036.134c-.39 0-.562.127-.562.302 0 .212.303.298.692.298 1.21 0 3.761-.13 3.892-.13.217 0 2.721.13 4.929.13.43 0 .606-.13.606-.298 0-.175-.086-.26-.475-.302-.173 0-1.082-.048-1.647-.175-1.122-.26-1.295-.733-1.467-1.978-.217-1.549-.175-4.565-.175-7.874v-3.397c3.416 4 10.332 11.059 12.278 12.433 1.729 1.207 2.593 1.591 5.968 1.591h2.81c.476 0 .693-.082.693-.257 0-.213-.217-.302-.603-.34-.737-.089-.52-.047-.998-.133-1.73-.388-3.197-1.162-6.224-3.915-1.818-1.632-8.82-8.515-11.155-10.928 1.9-1.718 5.659-5.375 8.817-8.214 2.252-2.026 2.813-2.495 3.85-2.842.52-.219 1.43-.387 2.121-.431.345-.045.472-.172.472-.343 0-.172-.086-.258-.688-.258-.562 0-2.938.13-4.24.13-1.385 0-2.68-.13-2.938-.13-.348 0-.434.13-.434.258 0 .174.172.26.476.343.52.174.692.387.692.685 0 .474-.173.69-2.252 2.975-1.946 2.109-6.658 6.582-8.645 8.344v-2.022h.003zm41.007 6.582c.173 0 .262.085.345.212l3.416 8.649c.259.644 0 .86-.172.946-.175.045-.306.175-.306.305 0 .213.261.254 1.081.302 2.897.082 6.141.082 6.575.082.472 0 .647-.082.647-.298 0-.216-.217-.302-.52-.302-.303 0-.909 0-1.467-.219-.606-.213-1.86-.772-3.286-4.169-2.293-5.378-8.172-20.396-8.779-21.818-.475-1.204-.647-1.375-.864-1.375-.303 0-.43.212-.91 1.463l-8.644 22.676c-.734 1.804-1.468 3.226-3.327 3.398-.262.047-.648.047-.865.047-.344 0-.52.127-.52.302 0 .213.217.298.692.298 1.819 0 3.72-.13 4.15-.13.476 0 2.463.13 3.417.13.303 0 .65-.082.65-.298 0-.175-.13-.302-.519-.302h-.303c-.95 0-1.43-.346-1.43-1.124 0-.682.304-1.848.738-3.054l1.9-5.375c.09-.213.221-.34.438-.34h7.863v-.006zm-7.439-1.509h6.916c.176 0 .176-.13.13-.26l-3.412-9.509c-.217-.603-.262-.603-.472 0l-3.248 9.51c-.086.17 0 .26.086.26zm34.784-13.985c1.25 0 2.593.04 4.239.04 4.368.045 4.926.477 5.098 2.198.042.432.042.467.042.603 0 .34.086.515.306.515.127 0 .303-.13.303-.515 0-.346.086-3.188.086-4.39 0-.175-.086-.388-.262-.388-.127 0-.258.044-.819.171-.607.13-1.902.216-3.117.216h-14.18a37.85 37.85 0 01-2.765-.216c-.782-.085-1.602-.473-1.902-.473-.13 0-.261.172-.392.69-.258 1.158-.909 4-.864 4.254 0 .219.044.393.216.393.176 0 .259-.044.39-.349.086-.21.258-.727.65-1.33.6-.902 1.206-1.334 3.978-1.378 1.729-.041 4.017-.041 5.449-.041v15.363c0 3.226 0 6.325-.172 7.874-.173 1.46-.303 1.978-1.126 2.105-.348.048-.607.048-.948.048-.348 0-.482.168-.482.302 0 .212.176.298.651.298 1.126 0 3.675-.13 3.851-.13.175 0 2.724.13 4.928.13.434 0 .565-.13.565-.343 0-.127-.176-.254-.52-.254-.345 0-1.171-.047-1.685-.174-1.081-.26-1.17-.86-1.298-1.896-.175-1.594-.217-4.648-.217-7.96V54.395h-.003zm22.847 15.363c0 3.27-.045 5.033-.086 6.5-.09 2.663-.606 3.229-1.385 3.394a3.28 3.28 0 01-.864.133c-.214 0-.39.127-.39.302 0 .212.221.298.603.298 1.04 0 1.86-.13 2.852-.13 1.602 0 3.589.089 5.107.13 1.509 0 2.722.089 5.577.089 1.426 0 1.729-.089 1.904-.953.131-.727.472-3.438.472-3.743 0-.257 0-.644-.258-.644-.176 0-.303.171-.389.6-.348 1.594-.651 2.454-1.946 2.845-1.079.298-2.46.254-3.283.254-1.474 0-2.51-.083-3.161-.382-.906-.39-1.123-1.206-1.209-2.8-.042-.733 0-4.518 0-5.851v-3.14c0-.175.045-.302.306-.302.692 0 4.192.082 5.187.175 1.643.127 1.901.727 2.074 1.285.082.343.13.775.13 1.032 0 .302.045.562.259.562.172 0 .255-.127.303-.473.044-.559.044-1.419.172-2.625.128-1.248.303-2.064.303-2.28 0-.216-.083-.257-.175-.257-.169 0-.3.085-.469.343-.345.47-.999.596-1.991.647-.906.086-5.318.124-5.838.124-.213 0-.261-.175-.261-.425v-9.773c0-.26.086-.346.22-.346.086 0 4.364.044 4.925.086 2.166.13 2.555.431 2.814 1.292.131.305.255.733.303 1.375 0 .301.083.473.3.473.22 0 .306-.254.306-.642.045-.819.083-1.508.131-2.241.083-1.073.344-1.677.344-1.934 0-.212-.089-.301-.172-.301-.175 0-.22.044-.475.127-.348.133-.823.174-1.685.215-.864.045-8.561.045-8.778.045-2.418-.044-3.589-.13-4.454-.13-.433 0-.644.085-.644.343 0 .13.255.257.558.257.345 0 .782.044 1.04.086 1.257.26 1.557.857 1.646 2.063.086 1.166.086 2.194.086 7.836v6.461h-.009zm27.606 0c0 3.226.045 6.754-.175 8.303-.128 1.032-.39 1.505-1.123 1.635-.351.089-.654.089-.954.089-.259 0-.517.127-.517.254 0 .26.176.343.6.343 1.171 0 3.075-.13 3.767-.13.169 0 2.594.13 4.839.13.437 0 .607-.13.607-.343 0-.127-.173-.254-.562-.254-.344 0-.826-.048-1.257-.089-1.423-.174-1.556-1.035-1.684-2.06-.217-1.55-.217-4.693-.217-8.138v-.6c0-.175.045-.213.217-.213l4.453.041c.265 0 .348.086.52.26.734.906 2.463 3.23 4.154 5.294 2.245 2.882 3.54 4.82 5.359 5.594.95.384 1.904.514 3.936.514h3.021c.603 0 .778-.082.778-.298 0-.175-.127-.302-.475-.302-.127 0-1.037-.047-1.34-.089-1.209-.174-2.504-.514-4.584-2.622-2.198-2.283-4.794-5.468-7.952-9.335 3.413-2.756 4.584-5.766 4.584-8.134a6.534 6.534 0 00-2.594-5.252c-2.035-1.416-4.67-1.632-7.091-1.632-1.209 0-4.15.13-4.543.13-.083 0-2.724-.13-4.581-.13-.389 0-.52.13-.52.302s.176.257.476.257c.344 0 .778.045 1.037.086 1.339.257 1.642.902 1.728 2.064.087 1.165.087 2.194.087 7.877v6.448h.006zm3.324-15.106v11.71c0 .209.045.428.217.514.565.298 2.29.555 3.85.555.9 0 1.984-.041 2.894-.641 1.295-.82 2.159-2.712 2.159-5.464 0-4.69-2.504-7.274-6.354-7.274-1.082 0-1.984.085-2.504.216a.387.387 0 00-.262.384zm29.728 15.106c0 3.226 0 6.284-.217 7.833-.128 1.032-.259 1.896-.996 2.06a5.249 5.249 0 01-1.036.134c-.393 0-.565.127-.565.302 0 .212.3.298.692.298 1.209 0 3.761-.13 3.892-.13.217 0 2.724.13 4.932.13.434 0 .603-.13.603-.298 0-.175-.083-.26-.472-.302-.176 0-1.085-.048-1.65-.175-1.119-.26-1.292-.733-1.467-1.978-.217-1.549-.176-4.565-.176-7.874v-6.451c0-5.687-.044-6.67.048-7.836.083-1.245.214-1.896 1.468-2.064.303-.044.517-.044.778-.086.345-.044.475-.13.475-.301 0-.216-.217-.302-.644-.302-1.212 0-3.723.13-3.898.13-.131 0-2.594-.13-3.93-.13-.479 0-.651.086-.651.302 0 .171.172.257.475.301.259.045.565.045.992.13.91.172 1.171.813 1.26 1.979.087 1.165.087 2.194.087 7.877v6.451zm20.821 5.249c0 3.137-.214 4.302-1.168 4.603-.564.175-1.037.175-1.34.175-.433 0-.603.127-.603.302 0 .257.259.298.648.298 1.86 0 3.458-.13 3.767-.13.303 0 1.86.13 4.189.13.472 0 .692-.082.692-.298 0-.175-.175-.302-.523-.302-.341 0-1.072 0-1.764-.175-1.082-.26-1.337-1.377-1.426-4.346l-.561-16.824c1.081 1.12 5.394 5.594 9.885 10.242 3.758 3.658 9.762 9.592 9.934 9.68 2.112 1.982 2.555 2.284 2.855 2.284.306 0 .389-.216.389-2.37l.09-21.599c0-2.58.303-3.01 1.295-3.225.472-.086.823-.086 1.084-.13.259-.045.383-.172.383-.344 0-.215-.124-.257-.603-.257-1.681 0-3.024.13-3.464.13-.393 0-2.201-.13-4.058-.13-.43 0-.775.042-.775.258 0 .174.086.342.517.342.303 0 .944.045 1.681.175 1.164.302 1.423 1.073 1.467 3.397l.472 17.898c-1.122-1.032-5.435-5.468-8.801-8.735-6.048-6.153-12.048-12.261-12.438-12.693-.303-.302-1.043-1.162-1.343-1.162-.35 0-.478.428-.478 1.762.038 7.143-.003.517-.003 21.044zm52.239-5.118c.176 0 .259.085.348.212l3.41 8.649c.262.644 0 .86-.172.946-.173.045-.303.175-.303.305 0 .213.255.254 1.078.302 2.896.082 6.144.082 6.574.082.476 0 .651-.082.651-.298 0-.216-.223-.302-.52-.302-.303 0-.906 0-1.47-.219-.606-.213-1.857-.772-3.286-4.169-2.29-5.378-8.173-20.396-8.779-21.818-.475-1.204-.644-1.375-.864-1.375-.303 0-.431.212-.906 1.463l-8.645 22.676c-.737 1.804-1.471 3.226-3.331 3.398-.258.047-.65.047-.864.047-.341 0-.517.127-.517.302 0 .213.214.298.692.298 1.812 0 3.714-.13 4.147-.13.479 0 2.466.13 3.417.13.306 0 .651-.082.651-.298 0-.175-.134-.302-.52-.302h-.3c-.954 0-1.429-.346-1.429-1.124 0-.682.303-1.848.737-3.054l1.898-5.375c.086-.213.213-.34.433-.34h7.87v-.006zm-7.436-1.509h6.919c.176 0 .176-.13.128-.26l-3.413-9.509c-.217-.603-.259-.603-.476 0l-3.241 9.51c-.092.17 0 .26.083.26zM99.899 96.828v4.239h-5.96v-4.239c0-.523-.427 0-.947 0-.53 0-.954-.523-.954 0v10.38c0 .523.425 0 .954 0 .523 0 .948.523.948 0v-4.245h5.959v4.245c0 .523.427 0 .95 0 .53 0 .954.523.954 0v-10.38c0-.523-.424 0-.954 0-.523 0-.95-.523-.95 0zm47.457 1.896v8.484c0 .523.428 0 .954 0s.951.523.951 0v-8.484h3.793c.526 0 0-.425 0-.946 0-.524.526-.95 0-.95h-9.382c-.53 0 0 .426 0 .95 0 .52-.53.946 0 .946h3.684zm-24.738-.159c-.951 0-1.809.381-2.428 1.007a3.477 3.477 0 00-.006 4.89 3.425 3.425 0 002.431 1.006 3.437 3.437 0 003.429-3.452c0-.955-.383-1.825-1.005-2.444a3.378 3.378 0 00-2.421-1.007zm-3.841-.39a5.43 5.43 0 00-.003 7.686 5.426 5.426 0 003.844 1.601 5.413 5.413 0 003.84-1.601 5.444 5.444 0 000-7.686 5.387 5.387 0 00-3.84-1.604c-1.5 0-2.859.616-3.841 1.604zm80.784-1.096v9.887c0 .181.054.232.143.229a.38.38 0 00.105.009h9.589c.527 0 0-.425 0-.949s.527-.949 0-.949h-7.93v-8.23c0-.524-.431 0-.957 0s-.95-.52-.95.003zm-28.79 0v9.887c0 .181.051.232.147.229a.374.374 0 00.108.009h9.586c.523 0 0-.425 0-.949s.523-.949 0-.949h-7.934v-2.766h4.157c.53 0 0-.425 0-.943 0-.524.53-.955 0-.955h-4.157v-1.921h7.934c.523 0 0-.426 0-.946 0-.524.523-.95 0-.95h-9.586a.562.562 0 00-.163.022h-.003l-.003.004-.01.003h-.003l-.006.006-.003.003-.007.007-.009.003-.007.013-.003.003v.003l-.006.006v.004l-.007.009-.003.006v.004a.635.635 0 00-.022.158zm5.831-55.508c-10.9 9.909-40.857 10.265-51.681.127-24.199 6.591-56.048 3.934-81.03 2.029-8.89-.68-18.058-1.512-26.974-1.512-7.975.003-11.937 7.312-13.551 14.142-.762 3.22-1.088 6.591-1.081 9.896.01 3.347.36 6.728 1.097 9.989 1.311 5.81 4.858 14.75 12.093 14.75h.029c5.972 0 11.93-.079 17.896-.177 3.078-.054 6.157-.105 9.232-.111 7.863-.013 18.738.016 26.362 2.086 2.97.81 6.351 2.159 7.117 5.467.268 1.16.207 2.381.153 3.563-.08 1.708-.118 3.209.912 4.679 1.617 2.315 5.369 3.607 7.953 4.338 6.932 1.965 15.2 2.711 22.362 3.241 14.527 1.089 29.306 1.261 43.872 1.261 14.584 0 29.389-.175 43.939-1.267 7.177-.534 15.465-1.283 22.41-3.248 2.596-.737 6.357-2.039 7.991-4.356 1.033-1.47 1.008-2.975.941-4.69-.051-1.168-.096-2.384.166-3.53.771-3.302 4.124-4.648 7.088-5.461 7.573-2.067 18.384-2.096 26.196-2.083 3.078.006 6.157.06 9.235.111 5.614.089 11.213.178 16.814.178l.055-.003c7.241 0 10.788-8.938 12.096-14.751.731-3.258 1.082-6.646 1.091-9.989.01-3.305-.319-6.67-1.078-9.897-1.614-6.829-5.576-14.135-13.554-14.135-9.047 0-18.317.816-27.342 1.493-12.466.936-26.633 2.063-40.704 2.127-14.074.06-28.04-.943-40.105-4.267zm36.663 51.149l.373.14c.271-3.182-4.581-3.772-8.907-4.302-4.903-.597-9.873-.95-14.801-1.236-13.149-.749-26.413-.98-39.582-.98-13.168 0-26.429.228-39.575.98-4.928.286-9.902.635-14.804 1.236-4.498.552-9.01 1.133-8.907 4.302l.367-.14c2.443-.94 6.096-1.381 8.696-1.699 4.88-.59 9.831-.94 14.738-1.216 13.117-.752 26.349-.98 39.485-.98 13.143 0 26.369.225 39.489.98 4.903.277 9.854.626 14.735 1.216 2.606.321 6.256.762 8.693 1.699zm-53.471-61.017c4.986 3.41 10.738 5.721 16.537 7.347 3.994-3.896 7.101-12.9 3.429-18.063a7.784 7.784 0 00-3.002-2.53c-1.307-.629-2.746-.89-4.198-.89a5.5 5.5 0 00-2.357.54c-.829.388-1.576.956-2.246 1.582-.823.774-1.56 1.666-2.242 2.575a45.862 45.862 0 00-2.326 3.47 353.524 353.524 0 00-3.595 5.969zm-16.799 1.908c-2.344 1.664-4.867 3.09-7.496 4.299a64.906 64.906 0 01-8.096 3.067c11.359 7.62 35.31 7.347 46.695-.143-5.42-1.692-10.741-4.02-15.385-7.306-6.052 10.211-9.606 10.367-15.718.083zm-17.765 5.572c5.851-1.622 11.676-3.946 16.697-7.394a297.534 297.534 0 00-3.64-6.052c-.734-1.187-1.496-2.356-2.332-3.47-.673-.908-1.413-1.8-2.239-2.575-.664-.626-1.413-1.19-2.246-1.581a5.473 5.473 0 00-2.357-.54c-1.449 0-2.891.26-4.202.889a7.832 7.832 0 00-3.001 2.53c-3.643 5.134-.565 14.282 3.32 18.193zm19.179-6.62c4.957 8.296 7.984 8.157 12.897-.076-2.418-1.867-4.594-4.004-6.447-6.42-1.847 2.448-4.026 4.607-6.45 6.496zm6.443-9.598c2.951-4.35 7.229-14.02 3.257-18.637-.877-1.02-2.099-1.673-3.461-1.676-1.352-.004-2.558.635-3.423 1.654-3.895 4.6.689 14.42 3.627 18.66z" fill="#fff"/></svg>