<svg width="131" height="48" fill="none" xmlns="http://www.w3.org/2000/svg"><path fill-rule="evenodd" clip-rule="evenodd" d="M53.404 16.137c-1.67-2.054-2.682-6.136-.913-8.456.391-.513.9-.923 1.51-1.197.627-.281 1.312-.4 2.007-.4.42 0 .82.091 1.2.257.408.18.775.438 1.101.726A8.6 8.6 0 0159.36 8.19c.377.471.724.967 1.053 1.466.62.935 1.22 1.88 1.815 2.826a14.201 14.201 0 002.789-2.55c-1.623-2.234-3.548-6.766-1.434-9.1.464-.51 1.11-.835 1.835-.832.727.003 1.38.333 1.845.84 2.142 2.322.343 6.81-1.266 9.08a14.575 14.575 0 002.796 2.527c.587-.936 1.184-1.867 1.793-2.792.33-.5.677-.996 1.054-1.468a8.98 8.98 0 011.052-1.122 4.277 4.277 0 011.1-.725 2.97 2.97 0 011.2-.258c.696 0 1.38.12 2.008.4.61.275 1.12.686 1.51 1.197 1.771 2.327.763 6.366-.954 8.41 10.396 2.455 23.812 1.415 34.487.664 3.951-.276 8.016-.614 11.976-.614 3.803 0 5.689 3.306 6.455 6.334.373 1.462.53 2.992.526 4.489a19.496 19.496 0 01-.527 4.504c-.627 2.599-2.307 6.538-5.746 6.6h-.085c-2.458 0-4.911-.037-7.369-.076-1.343-.02-2.687-.043-4.032-.044-3.378-.005-8.009-.026-11.304.722-1.018.232-2.441.63-2.688 1.732-.07.316-.05.65-.037.97.036.843.047 1.6-.445 2.35-.74 1.127-2.371 1.76-3.66 2.146-3.04.92-6.77 1.287-9.945 1.54-6.423.511-12.988.594-19.431.594-6.435 0-12.992-.083-19.405-.593-3.165-.252-6.891-.62-9.926-1.538-1.281-.387-2.91-1.022-3.64-2.147-.49-.75-.472-1.509-.43-2.35.016-.322.034-.658-.034-.974-.24-1.103-1.683-1.501-2.699-1.732-3.32-.746-7.975-.726-11.378-.721-1.343.001-2.687.024-4.03.044-2.608.041-5.214.076-7.823.076H6.35c-3.487 0-5.19-3.98-5.823-6.6A19.548 19.548 0 010 26.961c-.004-1.498.155-3.028.526-4.489.766-3.027 2.654-6.336 6.455-6.335 3.906.002 7.92.341 11.816.618 10.703.765 24.173 1.818 34.607-.618zM8.558 28.391a73.5 73.5 0 01-.038 2.652c-.038 1.087-.265 1.317-.605 1.385a1.509 1.509 0 01-.378.054c-.094 0-.17.052-.17.123 0 .087.094.122.264.122.453 0 .812-.053 1.247-.053.7 0 1.569.036 2.23.053.662 0 1.19.036 2.437.036.625 0 .757-.036.831-.389.057-.296.208-1.403.208-1.527 0-.105 0-.263-.113-.263-.075 0-.132.07-.17.245-.15.65-.284 1.001-.852 1.16-.472.122-1.076.104-1.435.104-.643 0-1.096-.033-1.38-.155-.396-.16-.49-.492-.527-1.143-.02-.299 0-1.843 0-2.387v-1.281c0-.072.018-.123.132-.123.302 0 1.833.033 2.268.07.716.053.83.297.906.525.038.14.057.317.057.421 0 .123.018.23.113.23.077 0 .114-.052.133-.193.019-.228.019-.58.076-1.072.057-.509.133-.842.133-.93 0-.088-.038-.105-.077-.105-.075 0-.133.035-.208.14-.152.192-.435.244-.868.265-.398.034-2.324.05-2.553.05-.094 0-.112-.071-.112-.174v-3.987c0-.106.037-.141.093-.141.038 0 1.908.018 2.155.035.944.053 1.114.176 1.227.527.057.124.114.3.132.561 0 .123.038.193.133.193.094 0 .132-.104.132-.262l.057-.914c.038-.438.15-.684.15-.79 0-.086-.037-.122-.075-.122-.076 0-.094.018-.209.052-.15.054-.36.07-.737.088-.375.02-3.737.02-3.83.02-1.06-.018-1.569-.053-1.947-.053-.188 0-.284.035-.284.14 0 .053.114.105.245.105.15 0 .342.018.455.035.547.106.678.35.718.842.037.476.037.895.037 3.197v2.634h-.001zm13.593-2.632c0-2.32-.019-2.722.019-3.198.038-.507.093-.773.641-.842.133-.018.227-.018.34-.035.151-.018.208-.053.208-.123 0-.088-.095-.123-.284-.123-.529 0-1.626.053-1.7.053-.057 0-1.133-.053-1.72-.053-.207 0-.283.035-.283.123 0 .07.076.105.208.123.114.018.247.018.435.053.397.07.51.332.55.808.037.475.037.895.037 3.214v2.632c0 1.316 0 2.564-.095 3.196-.057.42-.114.773-.436.84a2.46 2.46 0 01-.453.055c-.17 0-.246.052-.246.123 0 .087.133.122.303.122.528 0 1.643-.053 1.7-.053.095 0 1.19.053 2.154.053.188 0 .265-.053.265-.122 0-.071-.038-.106-.208-.123-.075 0-.472-.02-.719-.071-.49-.107-.566-.3-.641-.807-.095-.633-.077-1.863-.077-3.213v-1.386c1.493 1.632 4.515 4.512 5.366 5.073.755.492 1.133.649 2.608.649h1.228c.207 0 .302-.034.302-.105 0-.087-.095-.123-.263-.139-.322-.036-.227-.02-.437-.054-.755-.158-1.396-.474-2.72-1.598-.794-.665-3.854-3.474-4.874-4.458.83-.701 2.473-2.194 3.853-3.352.984-.826 1.23-1.018 1.683-1.16.227-.088.624-.157.927-.175.15-.018.206-.07.206-.14s-.038-.105-.301-.105c-.245 0-1.284.053-1.853.053-.605 0-1.17-.053-1.284-.053-.152 0-.19.053-.19.105 0 .071.076.106.209.14.227.071.302.158.302.28 0 .192-.075.28-.984 1.213-.85.86-2.91 2.686-3.778 3.405v-.825h.002zm17.92 2.685c.075 0 .114.035.15.087l1.493 3.529c.113.263 0 .35-.076.386-.076.018-.133.07-.133.124 0 .087.114.104.472.123 1.266.034 2.684.034 2.873.034.206 0 .283-.034.283-.122s-.095-.123-.227-.123c-.133 0-.397 0-.641-.09-.265-.086-.813-.314-1.436-1.7-1.002-2.195-3.572-8.322-3.836-8.903-.208-.49-.283-.56-.378-.56-.133 0-.188.086-.397.597l-3.778 9.252c-.32.736-.641 1.316-1.454 1.386-.114.02-.283.02-.378.02-.15 0-.227.051-.227.122 0 .087.095.122.303.122.794 0 1.625-.053 1.813-.053.208 0 1.076.053 1.493.053.132 0 .284-.034.284-.122 0-.071-.057-.123-.227-.123h-.132c-.416 0-.625-.141-.625-.458 0-.279.133-.754.322-1.247l.831-2.193c.04-.087.096-.138.191-.138h3.436v-.003zm-3.252-.615h3.023c.076 0 .076-.053.057-.107l-1.492-3.88c-.095-.245-.114-.245-.206 0l-1.42 3.88c-.037.07 0 .107.038.107zm15.2-5.707c.547 0 1.134.017 1.853.017 1.908.018 2.152.194 2.228.897.018.176.018.19.018.246 0 .138.037.21.134.21.055 0 .132-.054.132-.21 0-.142.038-1.3.038-1.792 0-.071-.038-.158-.115-.158-.055 0-.113.018-.358.07-.265.053-.83.088-1.362.088h-6.196c-.018 0-.548-.018-1.209-.088-.341-.035-.7-.193-.83-.193-.058 0-.115.07-.172.281-.113.473-.397 1.632-.378 1.736 0 .09.02.16.095.16.077 0 .113-.017.17-.142.038-.085.113-.296.285-.543.262-.368.526-.544 1.738-.562.755-.017 1.755-.017 2.38-.017v6.269c0 1.316 0 2.58-.075 3.213-.075.596-.132.807-.492.858-.152.02-.264.02-.414.02-.152 0-.21.069-.21.123 0 .087.077.122.284.122.492 0 1.606-.053 1.683-.053.076 0 1.19.053 2.154.053.19 0 .246-.053.246-.14 0-.052-.076-.104-.227-.104-.15 0-.512-.02-.736-.071-.473-.106-.512-.351-.567-.773-.077-.65-.095-1.897-.095-3.248v-6.269h-.002zm9.984 6.269c0 1.334-.02 2.053-.038 2.652-.039 1.087-.264 1.317-.604 1.385a1.527 1.527 0 01-.378.054c-.094 0-.17.052-.17.123 0 .087.096.122.263.122.455 0 .813-.053 1.246-.053.7 0 1.569.036 2.232.053.66 0 1.19.036 2.437.036.623 0 .755-.036.832-.389.057-.296.206-1.403.206-1.527 0-.105 0-.263-.112-.263-.077 0-.133.07-.17.245-.153.65-.285 1.001-.85 1.16-.472.122-1.076.104-1.435.104-.644 0-1.097-.033-1.382-.155-.396-.16-.49-.492-.528-1.143-.018-.299 0-1.843 0-2.387v-1.281c0-.072.02-.123.134-.123.302 0 1.831.033 2.266.07.718.053.831.297.906.525.037.14.058.317.058.421 0 .123.02.23.112.23.076 0 .112-.052.133-.193.02-.228.02-.58.075-1.072.056-.509.133-.842.133-.93 0-.088-.037-.105-.077-.105-.074 0-.131.035-.205.14-.15.192-.436.244-.87.265-.396.034-2.324.05-2.55.05-.094 0-.115-.071-.115-.174v-3.987c0-.106.038-.141.096-.141.038 0 1.907.018 2.152.035.947.053 1.117.176 1.23.527.057.124.111.3.132.561 0 .123.037.193.131.193.096 0 .134-.104.134-.262.02-.334.036-.615.057-.914.037-.438.15-.684.15-.79 0-.086-.038-.122-.074-.122-.077 0-.097.018-.208.052-.152.054-.36.07-.736.088-.378.018-3.742.018-3.836.018-1.057-.018-1.569-.053-1.946-.053-.19 0-.282.035-.282.14 0 .053.112.104.244.104.15 0 .342.019.454.035.55.107.68.35.72.843.037.475.037.895.037 3.197v2.636h-.004zm12.064 0c0 1.316.02 2.755-.077 3.388-.056.42-.17.613-.49.667-.154.036-.286.036-.417.036-.113 0-.226.052-.226.104 0 .106.076.14.262.14.511 0 1.344-.054 1.646-.054.074 0 1.133.053 2.115.053.19 0 .265-.053.265-.14 0-.051-.076-.103-.246-.103-.15 0-.36-.02-.549-.036-.622-.072-.68-.423-.736-.841-.095-.632-.095-1.915-.095-3.32v-.245c0-.071.02-.087.095-.087l1.946.017c.116 0 .152.035.227.106.32.37 1.076 1.318 1.815 2.16.982 1.176 1.548 1.966 2.342 2.282.416.157.832.21 1.72.21h1.32c.264 0 .34-.034.34-.122 0-.071-.055-.123-.207-.123-.056 0-.453-.02-.586-.036-.528-.071-1.094-.21-2.003-1.07-.96-.931-2.095-2.23-3.475-3.809 1.492-1.124 2.003-2.352 2.003-3.319 0-1.193-.775-1.896-1.133-2.142-.89-.578-2.04-.666-3.099-.666-.528 0-1.814.053-1.985.053-.036 0-1.19-.053-2.002-.053-.17 0-.227.053-.227.123s.077.105.208.105c.15 0 .34.018.453.035.585.105.718.368.755.842.038.475.038.895.038 3.214v2.63h.003zm1.452-6.164v4.778c0 .085.02.175.095.21.247.121 1.001.226 1.683.226.393 0 .867-.017 1.264-.261.566-.335.944-1.107.944-2.23 0-1.913-1.095-2.968-2.777-2.968-.473 0-.867.035-1.094.088a.16.16 0 00-.115.157zm12.99 6.164c0 1.316 0 2.564-.094 3.196-.056.42-.113.773-.435.84a2.45 2.45 0 01-.453.055c-.171 0-.247.052-.247.123 0 .087.131.122.303.122.528 0 1.643-.053 1.7-.053.095 0 1.191.053 2.156.053.19 0 .263-.053.263-.122 0-.071-.036-.106-.206-.123-.077 0-.474-.02-.72-.071-.49-.107-.566-.3-.642-.807-.095-.633-.077-1.863-.077-3.213v-2.632c0-2.32-.02-2.722.021-3.198.036-.507.093-.773.641-.842.133-.018.226-.018.34-.035.151-.018.208-.053.208-.123 0-.088-.095-.123-.281-.123-.53 0-1.627.053-1.704.053-.057 0-1.133-.053-1.717-.053-.21 0-.285.035-.285.123 0 .07.076.105.208.123.113.018.247.018.434.053.397.07.511.332.55.808.038.475.038.895.038 3.214v2.632zm9.1 2.141c0 1.28-.094 1.756-.51 1.879-.248.07-.454.07-.586.07-.19 0-.264.053-.264.124 0 .105.113.122.283.122.813 0 1.511-.053 1.647-.053.132 0 .812.053 1.83.053.206 0 .302-.034.302-.122 0-.071-.076-.123-.228-.123-.15 0-.469 0-.771-.071-.473-.107-.584-.563-.623-1.774l-.246-6.864 4.32 4.179c1.642 1.492 4.266 3.913 4.341 3.95.923.808 1.117.931 1.248.931.134 0 .17-.088.17-.966l.039-8.813c0-1.053.132-1.228.566-1.316.206-.035.36-.035.474-.054.113-.018.167-.07.167-.14 0-.088-.054-.104-.263-.104-.735 0-1.322.053-1.514.053-.172 0-.962-.053-1.773-.053-.189 0-.339.016-.339.104 0 .072.038.14.226.14.132 0 .412.018.734.072.509.123.622.438.642 1.386l.206 7.302c-.491-.42-2.375-2.23-3.846-3.564-2.643-2.51-5.265-5.003-5.435-5.179-.133-.123-.456-.474-.587-.474-.154 0-.21.175-.21.72.017 2.914 0 .21 0 8.585zm22.827-2.088c.077 0 .113.035.152.087l1.49 3.529c.115.263 0 .35-.075.386-.075.018-.132.07-.132.124 0 .087.111.104.471.123 1.266.034 2.685.034 2.873.034.208 0 .284-.034.284-.122s-.097-.123-.227-.123c-.132 0-.396 0-.643-.09-.264-.086-.811-.314-1.435-1.7-1.001-2.195-3.572-8.322-3.837-8.903-.207-.49-.281-.56-.377-.56-.133 0-.189.086-.396.597l-3.778 9.252c-.322.736-.643 1.316-1.455 1.386-.113.02-.285.02-.378.02-.149 0-.226.051-.226.122 0 .087.093.122.303.122.791 0 1.622-.053 1.812-.053.209 0 1.077.053 1.493.053.134 0 .284-.034.284-.122 0-.071-.058-.123-.227-.123h-.131c-.417 0-.625-.141-.625-.458 0-.279.133-.754.322-1.247l.83-2.193c.037-.087.093-.138.189-.138h3.439v-.003zm-3.249-.615h3.023c.077 0 .077-.053.056-.107l-1.491-3.88c-.095-.245-.113-.245-.208 0l-1.416 3.88c-.041.07 0 .107.036.107zM43.242 39.436v1.73h-2.604v-1.73c0-.214-.187 0-.414 0-.232 0-.417-.214-.417 0v4.234c0 .213.185 0 .417 0 .228 0 .414.213.414 0v-1.732h2.604v1.732c0 .213.186 0 .415 0 .231 0 .417.213.417 0v-4.235c0-.214-.186 0-.417 0-.229 0-.415-.214-.415 0zm20.738.773v3.462c0 .213.187 0 .417 0 .23 0 .415.213.415 0v-3.462h1.657c.23 0 0-.173 0-.386 0-.214.23-.387 0-.387H62.37c-.232 0 0 .173 0 .387 0 .213-.232.386 0 .386h1.61zm-10.81-.065c-.416 0-.79.156-1.061.411-.27.251-.44.608-.44.998s.17.743.437.997c.272.254.647.41 1.062.41.414 0 .79-.156 1.06-.41.271-.252.439-.606.439-.997 0-.39-.168-.745-.44-.998a1.53 1.53 0 00-1.057-.41zm-1.679-.159c-.43.403-.697.956-.697 1.568 0 .612.266 1.164.696 1.568a2.46 2.46 0 001.68.653c.655 0 1.248-.251 1.678-.653a2.15 2.15 0 00.694-1.568c0-.612-.266-1.165-.694-1.568a2.44 2.44 0 00-1.678-.654c-.656 0-1.25.251-1.679.654zm35.301-.447v4.034c0 .074.024.095.063.093.013.004.03.004.046.004h4.19c.23 0 0-.173 0-.387 0-.214.23-.387 0-.387h-3.465v-3.358c0-.214-.188 0-.418 0-.23 0-.416-.213-.416.001zm-12.58 0v4.034c0 .074.022.095.064.093a.161.161 0 00.047.004h4.19c.228 0 0-.173 0-.387 0-.214.228-.387 0-.387h-3.468v-1.129h1.817c.231 0 0-.173 0-.384 0-.214.231-.39 0-.39h-1.817v-.784h3.467c.229 0 0-.174 0-.386 0-.214.229-.388 0-.388h-4.189a.26.26 0 00-.07.01h-.004l-.004.002h-.001l-.003.003-.001.001-.003.003-.004.001-.003.005-.002.002-.002.003v.002l-.003.003-.001.003v.001a.232.232 0 00-.01.065zM76.76 16.89c-4.763 4.043-17.854 4.188-22.584.052-10.575 2.69-24.492 1.605-35.409.828-3.885-.278-7.891-.617-11.787-.617-3.485.001-5.217 2.983-5.922 5.77-.333 1.313-.475 2.69-.472 4.038.004 1.365.157 2.745.48 4.075.572 2.37 2.122 6.019 5.284 6.019h.012c2.61 0 5.214-.033 7.82-.073a279.92 279.92 0 014.035-.045c3.436-.005 8.188.006 11.52.851 1.297.33 2.775.88 3.11 2.23.117.474.09.972.066 1.454-.034.697-.051 1.31.4 1.91.706.944 2.345 1.471 3.474 1.77 3.03.801 6.643 1.106 9.772 1.322 6.348.444 12.807.514 19.172.514 6.373 0 12.843-.071 19.2-.517 3.137-.217 6.758-.523 9.793-1.325 1.135-.3 2.778-.831 3.492-1.777.452-.6.44-1.214.411-1.914-.022-.476-.041-.972.073-1.44.337-1.347 1.802-1.897 3.097-2.228 3.31-.844 8.034-.855 11.448-.85 1.345.003 2.69.025 4.035.045 2.454.037 4.9.073 7.348.073l.024-.002c3.164 0 4.714-3.646 5.286-6.018.319-1.33.472-2.712.476-4.076a16.338 16.338 0 00-.471-4.037c-.705-2.787-2.436-5.768-5.923-5.768-3.953 0-8.004.333-11.948.61-5.447.381-11.638.841-17.787.867-6.15.025-12.253-.385-17.525-1.741zm16.02 20.87l.163.056c.119-1.297-2.002-1.538-3.892-1.755-2.143-.243-4.314-.387-6.468-.504-5.746-.305-11.542-.4-17.297-.4-5.754 0-11.549.093-17.293.4-2.154.117-4.327.26-6.47.504-1.965.226-3.937.463-3.892 1.755l.16-.056c1.068-.384 2.664-.564 3.8-.694 2.133-.24 4.297-.383 6.44-.496 5.733-.307 11.515-.4 17.255-.4 5.744 0 11.523.092 17.257.4 2.142.113 4.306.255 6.438.496 1.14.131 2.734.311 3.799.694zM69.415 12.864c2.179 1.391 4.692 2.334 7.226 2.997 1.746-1.59 3.103-5.263 1.499-7.37a3.355 3.355 0 00-1.312-1.032c-.571-.256-1.2-.363-1.834-.363a2.55 2.55 0 00-1.03.22c-.363.159-.689.39-.982.646-.36.316-.681.68-.98 1.05-.364.455-.698.933-1.016 1.416a144.44 144.44 0 00-1.571 2.436zm-7.34.778a20.78 20.78 0 01-3.277 1.754 29.625 29.625 0 01-3.538 1.252c4.965 3.109 15.43 2.997 20.406-.059-2.369-.69-4.694-1.64-6.724-2.98-2.644 4.166-4.197 4.23-6.868.033zm-7.764 2.274c2.557-.662 5.102-1.61 7.296-3.017-.521-.83-1.048-1.652-1.59-2.47-.32-.484-.654-.96-1.02-1.415a8.002 8.002 0 00-.978-1.05 3.834 3.834 0 00-.981-.646 2.534 2.534 0 00-1.03-.22c-.633 0-1.263.106-1.836.362-.527.236-.97.587-1.312 1.033-1.592 2.095-.247 5.827 1.451 7.423zm8.38-2.701c2.167 3.385 3.49 3.328 5.637-.031a14.911 14.911 0 01-2.818-2.62c-.807 1-1.759 1.88-2.818 2.65zm2.817-3.916c1.29-1.775 3.158-5.721 1.423-7.605a2.062 2.062 0 00-1.513-.684 2.006 2.006 0 00-1.495.675c-1.702 1.877.3 5.884 1.585 7.614z" fill="#4A4A4A"/></svg>