<svg width="53" height="59" fill="none" xmlns="http://www.w3.org/2000/svg"><path d="M18.375 52.07v.968l-.857-.43" stroke="red" stroke-width="1.5" stroke-linecap="round" stroke-linejoin="round"/><path d="M15.83 51.758l-12.662-6.37" stroke="red" stroke-width="1.5" stroke-linecap="round" stroke-linejoin="round" stroke-dasharray="1 3"/><path d="M2.323 44.96l-.858-.43v-.968" stroke="red" stroke-width="1.5" stroke-linecap="round" stroke-linejoin="round"/><path d="M1.465 41.604V15.188" stroke="red" stroke-width="1.5" stroke-linecap="round" stroke-linejoin="round" stroke-dasharray="6.28 6.28"/><path d="M1.465 14.208v-.969l.858.43" stroke="red" stroke-width="1.5" stroke-linecap="round" stroke-linejoin="round"/><path d="M4.01 14.52l12.662 6.37" stroke="red" stroke-width="1.5" stroke-linecap="round" stroke-linejoin="round" stroke-dasharray="1 3"/><path d="M17.518 21.316l.857.43v.972" stroke="red" stroke-width="1.5" stroke-linecap="round" stroke-linejoin="round"/><path d="M18.375 24.672V51.09" stroke="red" stroke-width="1.5" stroke-linecap="round" stroke-linejoin="round" stroke-dasharray="1 3"/><path d="M26.468 32.293L1.44 44.533V13.24L26.468 1v31.292z" stroke="red" stroke-width="1.5" stroke-miterlimit="10" stroke-linecap="round" stroke-linejoin="round"/><path d="M51.493 44.531V13.24L26.467 1v31.292l6.422 3.141" stroke="red" stroke-width="1.5" stroke-miterlimit="10" stroke-linecap="round" stroke-linejoin="round"/><path d="M24.525 57.555l25.027-12.24m-31.175 7.614l12.982-6.349m12.045-20.668V11.767" stroke="red" stroke-width="1.5" stroke-miterlimit="10" stroke-linecap="round" stroke-linejoin="round" stroke-dasharray="1 3"/><path d="M32.889 45.014l7.67 3.749V36.056l-7.67-3.748v12.706z" stroke="red" stroke-width="1.5" stroke-miterlimit="10" stroke-linecap="round" stroke-linejoin="round"/><path d="M32.889 32.307l10.513-4.455 8.091 3.537-10.934 4.667" stroke="red" stroke-width="1.5" stroke-miterlimit="10" stroke-linecap="round" stroke-linejoin="round"/></svg>