<svg width="29" height="24" fill="none" xmlns="http://www.w3.org/2000/svg"><path d="M27.047 12.847v3.866c0 .38-.317.688-.704.688H3.261a.697.697 0 01-.704-.688V1.688c0-.38.317-.688.704-.688h23.08c.389 0 .703.31.703.688v11.16" stroke="#000" stroke-miterlimit="10" stroke-linecap="round" stroke-linejoin="round"/><path d="M11.188 3.565c-.759 0-1.42.393-1.792.98a2.11 2.11 0 00-1.791-.98c-1.16 0-2.103.919-2.103 2.056s.94 2.055 2.103 2.055c.758 0 1.42-.393 1.791-.98a2.11 2.11 0 001.792.98c1.16 0 2.102-.918 2.102-2.055s-.942-2.056-2.102-2.056zm7.431 2.94h4.637m-4.637-1.849h4.637m-4.637 3.697h4.637M5.844 13.139h2.39m2.235 0h2.404m2.277 0h2.36m2.223 0h1.943M2.557 15.122L1.013 7.358a.69.69 0 01.56-.809l.957-.183m24.701 7.378l.756 3.795a.69.69 0 01-.56.809L4.772 22.653a.704.704 0 01-.827-.546l-.946-4.754m3.506 1.727l2.35-.425m2.197-.399l2.365-.428" stroke="#000" stroke-miterlimit="10" stroke-linecap="round" stroke-linejoin="round"/></svg>