<svg width="25" height="21" fill="none" xmlns="http://www.w3.org/2000/svg"><path d="M17.222 2.41h2.096c.734 0 1.327.593 1.327 1.326v1.75M2.551 20.284h-.224A1.326 1.326 0 011 18.957V3.737c0-.734.593-1.328 1.327-1.328H13m10.075 12.147v4.4c0 .734-.593 1.328-1.327 1.328H2.816" stroke="#000" stroke-miterlimit="10" stroke-linecap="round" stroke-linejoin="round"/><path d="M1 3.735c0 1.75 1.184 1.75 1.915 1.75h18.833c.733 0 1.327.594 1.327 1.327v4.167" stroke="#000" stroke-miterlimit="10" stroke-linecap="round" stroke-linejoin="round"/><path d="M18.34 5.485L16.707 1 4.657 5.485m13.798 8.276c0 .44.356.795.794.795h3.724c.44 0 .795-.357.795-.795v-1.984a.794.794 0 00-.795-.795h-3.724a.794.794 0 00-.794.795v1.984z" stroke="#000" stroke-miterlimit="10" stroke-linecap="round" stroke-linejoin="round"/></svg>