<svg width="14" height="15" fill="none" xmlns="http://www.w3.org/2000/svg"><g clip-path="url(#clip0)" fill="#001E3D" fill-opacity=".4"><path d="M13.453 2.495H10.76v-.551a.547.547 0 00-1.094 0v.551H4.334v-.551a.547.547 0 10-1.094 0v.551H.547A.547.547 0 000 3.042v10.714c0 .302.245.547.547.547h12.906a.547.547 0 00.547-.547V3.042a.547.547 0 00-.547-.547zm-.547 10.714H1.094V3.59H3.24v.551a.547.547 0 101.094 0V3.59h5.332v.551a.547.547 0 101.094 0V3.59h2.146v9.62z"/><path d="M7 8.013a.738.738 0 100-1.477.738.738 0 000 1.477zm0 3.213a.738.738 0 100-1.477.738.738 0 000 1.477zM3.787 8.013a.738.738 0 100-1.477.738.738 0 000 1.477zm6.426 0a.738.738 0 100-1.477.738.738 0 000 1.477zm-6.426 3.213a.738.738 0 100-1.477.738.738 0 000 1.477zm6.426 0a.738.738 0 100-1.477.738.738 0 000 1.477z"/></g><defs><clipPath id="clip0"><path fill="#fff" transform="translate(0 .85)" d="M0 0h14v14H0z"/></clipPath></defs></svg>