<svg width="16" height="17" fill="none" xmlns="http://www.w3.org/2000/svg"><g clip-path="url(#clip0)" fill="#FF855E"><path d="M12.719 6.536h-2.344V1.317a.469.469 0 00-.469-.469H6.094c-.26 0-.469.21-.469.469v5.219H3.281a.469.469 0 00-.36.769l4.75 5.625a.469.469 0 00.72 0l4.687-5.625a.469.469 0 00-.36-.77zm-9.906 7.5h11.781a1.406 1.406 0 010 2.812H1.406a1.406 1.406 0 010-2.812h1.407z"/></g><defs><clipPath id="clip0"><path fill="#fff" transform="translate(0 .848)" d="M0 0h16v16H0z"/></clipPath></defs></svg>