<svg width="16" height="16" fill="none" xmlns="http://www.w3.org/2000/svg"><path d="M13.657 9.713a7.966 7.966 0 00-3.098-1.926 4.311 4.311 0 001.756-3.472A4.32 4.32 0 008 0a4.32 4.32 0 00-4.315 4.315c0 1.422.692 2.685 1.756 3.472a7.967 7.967 0 00-3.098 1.926A7.948 7.948 0 000 15.37c0 .348.282.63.63.63h14.74a.63.63 0 00.63-.63 7.948 7.948 0 00-2.343-5.657zM4.945 4.315A3.059 3.059 0 018 1.26a3.059 3.059 0 013.055 3.055A3.059 3.059 0 018 7.37a3.059 3.059 0 01-3.055-3.055zM1.289 14.74A6.75 6.75 0 018 8.63a6.75 6.75 0 016.711 6.11H1.29z" fill="#73ACDC"/></svg>