<svg width="16" height="17" fill="none" xmlns="http://www.w3.org/2000/svg"><g clip-path="url(#clip0)"><path d="M15.298 11.271l-1.735-1.239a1.671 1.671 0 00-2.16.179l-1.016 1.016c-1.303-.923-4.19-3.81-5.115-5.114L6.29 5.097c.582-.582.657-1.49.179-2.16l-1.24-1.735A1.677 1.677 0 002.679.99l-1.6 1.6c-1.438 1.44-1.437 3.386.003 5.342 2.285 3.102 4.384 5.2 7.486 7.486 1.81 1.332 3.798 1.546 5.341.003l1.601-1.601a1.677 1.677 0 00-.21-2.55zm-.673 1.666l-1.6 1.6c-1.11 1.111-2.457.803-3.717-.125-2.992-2.204-5.016-4.228-7.22-7.22C1.16 5.932.85 4.586 1.962 3.475l1.6-1.6a.426.426 0 01.65.053L5.45 3.663a.425.425 0 01-.046.55L4.052 5.566a.625.625 0 00-.147.65c.431 1.215 5.165 5.948 6.378 6.379.228.08.48.023.651-.148l1.353-1.352a.425.425 0 01.55-.046l1.735 1.24c.214.153.24.462.053.648z" fill="#73ACDC"/></g><defs><clipPath id="clip0"><path fill="#fff" transform="translate(0 .5)" d="M0 0h16v16H0z"/></clipPath></defs></svg>