<svg width="17" height="17" fill="none" xmlns="http://www.w3.org/2000/svg"><path d="M10.34 3.78a3.609 3.609 0 012.85 2.852M10.34.894a6.496 6.496 0 015.738 5.731m-.722 5.76v2.166a1.445 1.445 0 01-1.574 1.444c-2.22-.242-4.354-1-6.229-2.217a14.076 14.076 0 01-4.331-4.33 14.285 14.285 0 01-2.216-6.259 1.444 1.444 0 011.436-1.574h2.166a1.444 1.444 0 011.444 1.242c.09.693.26 1.373.505 2.028a1.444 1.444 0 01-.325 1.523l-.917.917a11.55 11.55 0 004.331 4.331l.917-.917a1.443 1.443 0 011.523-.324 9.268 9.268 0 002.028.505 1.444 1.444 0 011.242 1.465z" stroke="#6D6D6D" stroke-width="1.5" stroke-linecap="round" stroke-linejoin="round"/></svg>