<svg width="18" height="19" fill="none" xmlns="http://www.w3.org/2000/svg"><g clip-path="url(#clip0)" fill="#FFE7DF"><path d="M7.747 13.562a1.772 1.772 0 102.506 2.505 1.772 1.772 0 00-2.506-2.505zM9 9.35c-1.46 0-2.832.568-3.863 1.6a1.036 1.036 0 101.466 1.466A3.366 3.366 0 019 11.423c.906 0 1.758.352 2.398.993a1.035 1.035 0 001.466 0 1.036 1.036 0 000-1.466A5.426 5.426 0 009 9.35z"/><path d="M9 5.936a8.82 8.82 0 00-6.277 2.6 1.037 1.037 0 001.466 1.467A6.76 6.76 0 019 8.01a6.76 6.76 0 014.811 1.993 1.034 1.034 0 001.466 0 1.037 1.037 0 000-1.466A8.818 8.818 0 009 5.937z"/><path d="M17.697 6.117A12.216 12.216 0 009 2.515 12.215 12.215 0 00.304 6.117 1.037 1.037 0 001.77 7.583 10.157 10.157 0 019 4.588c2.732 0 5.3 1.064 7.23 2.995a1.037 1.037 0 001.467-1.466z"/></g><defs><clipPath id="clip0"><path fill="#fff" transform="translate(0 .55)" d="M0 0h18v18H0z"/></clipPath></defs></svg>