<svg width="18" height="19" fill="none" xmlns="http://www.w3.org/2000/svg"><g clip-path="url(#clip0)" fill="#FFE7DF"><path d="M16.977 11.824c-1.543-.974-3.31-1.508-5.136-1.608.422.198.84.407 1.236.657.955.601 1.548 1.69 1.548 2.842v3.21H18v-3.21c0-.768-.392-1.493-1.023-1.891z"/><path d="M12.477 11.824c-3.42-2.157-8.034-2.157-11.453 0A2.242 2.242 0 000 13.715v3.21h13.5v-3.21c0-.768-.392-1.493-1.023-1.89zm-2.359-2.96a3.9 3.9 0 001.132.186 3.942 3.942 0 003.937-3.937 3.942 3.942 0 00-3.937-3.938c-.393 0-.768.076-1.132.186 1.032.928 1.694 2.258 1.694 3.752 0 1.493-.662 2.823-1.694 3.75z"/><path d="M9.534 2.328a3.937 3.937 0 11-5.568 5.569 3.937 3.937 0 015.568-5.569z"/></g><defs><clipPath id="clip0"><path fill="#fff" transform="translate(0 .05)" d="M0 0h18v18H0z"/></clipPath></defs></svg>