<svg width="18" height="19" fill="none" xmlns="http://www.w3.org/2000/svg"><g clip-path="url(#clip0)" fill="#FFE7DF"><path d="M4.523 12.803l-.032-.002a3.005 3.005 0 01-.722-.133l-1.603 2.777a.527.527 0 00.198.724l1.58.885c.251.141.57.054.714-.196L7 12.803H4.523zM13.43 1.058L8.665 3.975v8.4l4.77 2.834a.528.528 0 00.798-.453V1.508a.528.528 0 00-.803-.45zM1.706 9.896V6.354c0-.203.022-.4.063-.592h-.767C.449 5.762 0 6.211 0 6.764v2.722c0 .553.449 1.002 1.002 1.002h.766a2.85 2.85 0 01-.062-.592zm5.904 1.853H4.553c-.99-.06-1.793-.863-1.793-1.853V6.354c0-.99.803-1.793 1.793-1.733h3.055v7.128zm8.939.686a.526.526 0 01-.373-.154l-1.064-1.064a.527.527 0 11.746-.746l1.064 1.064a.527.527 0 01-.373.9zm-1.064-6.327a.526.526 0 01-.373-.9l1.064-1.065a.528.528 0 01.746.746l-1.064 1.064a.526.526 0 01-.373.155zm1.987 2.632h-1.505a.527.527 0 110-1.055h1.505a.527.527 0 110 1.054z"/></g><defs><clipPath id="clip0"><path fill="#fff" transform="translate(0 .05)" d="M0 0h18v18H0z"/></clipPath></defs></svg>