<svg width="18" height="19" fill="none" xmlns="http://www.w3.org/2000/svg"><g clip-path="url(#clip0)" fill="#FFE7DF"><path d="M10.09.05a.527.527 0 00-.527.528v7.418c0 .291.235.527.527.527h7.383A.527.527 0 0018 7.996C18 3.634 14.452.05 10.09.05zm.977 16.818l-2.56-6.859V2.722a.527.527 0 00-.527-.527C3.62 2.195 0 5.743 0 10.105s3.619 7.945 7.98 7.945c.955 0 1.89-.17 2.778-.503a.528.528 0 00.309-.68z"/><path d="M17.473 9.578H10.09a.528.528 0 00-.494.712l2.592 6.949a.527.527 0 00.68.308C15.938 16.392 18 13.38 18 10.105a.527.527 0 00-.527-.527z"/></g><defs><clipPath id="clip0"><path fill="#fff" transform="translate(0 .05)" d="M0 0h18v18H0z"/></clipPath></defs></svg>