<svg width="18" height="19" fill="none" xmlns="http://www.w3.org/2000/svg"><g clip-path="url(#clip0)" fill="#FFE7DF"><path d="M11.25 5.425a.75.75 0 01-.75-.75V3.55h-3v1.125a.75.75 0 01-1.5 0V3.55c0-.827.673-1.5 1.5-1.5h3c.827 0 1.5.673 1.5 1.5v1.125a.75.75 0 01-.75.75zm-1.717 6.66a1.643 1.643 0 01-1.11-.015L0 9.265v5.723a2.06 2.06 0 002.063 2.062h13.874c1.14 0 2.063-.922 2.063-2.062V9.265l-8.467 2.82z"/><path d="M18 6.363V8.08l-8.82 2.94a.504.504 0 01-.18.03.504.504 0 01-.18-.03L0 8.08V6.363C0 5.223.922 4.3 2.063 4.3h13.874c1.14 0 2.063.923 2.063 2.063z"/></g><defs><clipPath id="clip0"><path fill="#fff" transform="translate(0 .55)" d="M0 0h18v18H0z"/></clipPath></defs></svg>