<svg width="18" height="19" fill="none" xmlns="http://www.w3.org/2000/svg"><g clip-path="url(#clip0)" fill="#FFE7DF"><path d="M8.858 18.55H7.452a1.267 1.267 0 01-1.265-1.265v-8.72c0-.697.567-1.265 1.265-1.265h1.406c.698 0 1.266.568 1.266 1.266v8.719c0 .698-.568 1.265-1.266 1.265zm-5.343 0H2.108a1.267 1.267 0 01-1.265-1.265v-5.907c0-.697.568-1.265 1.265-1.265h1.407c.698 0 1.265.568 1.265 1.265v5.907c0 .698-.567 1.265-1.265 1.265zm10.687 0h-1.406a1.267 1.267 0 01-1.266-1.265V5.613h-.773a.905.905 0 01-.83-.532.905.905 0 01.136-.977l.009-.01L13.08.738a.562.562 0 01.838 0l3.008 3.358a.905.905 0 01.145.986.905.905 0 01-.83.532h-.773v11.672c0 .698-.568 1.265-1.266 1.265z"/></g><defs><clipPath id="clip0"><path fill="#fff" transform="translate(0 .55)" d="M0 0h18v18H0z"/></clipPath></defs></svg>