<svg width="91" height="90" fill="none" xmlns="http://www.w3.org/2000/svg"><g clip-path="url(#clip0)"><path d="M89.36 87.358h-8.54v-52.22c0-.73-.592-1.322-1.321-1.322h-14.09c-.73 0-1.321.592-1.321 1.321v52.221h-10.04V50.636c0-.73-.59-1.32-1.32-1.32h-14.09c-.73 0-1.321.59-1.321 1.32v36.722h-10.04V57.681c0-.73-.59-1.32-1.32-1.32h-14.09c-.73 0-1.321.59-1.321 1.32v29.677H2.003a1.321 1.321 0 100 2.642H89.36a1.321 1.321 0 100-2.642zm-64.725 0H13.186V59.002h11.449v28.356zm26.77 0H39.959v-35.4h11.448v35.4zm26.772 0H66.729v-50.9h11.448v50.9z" fill="#73ACDC"/><path d="M86.464 1.036A4.137 4.137 0 0083.211.032L71.94 1.442c-2.237.279-3.873 2.38-3.593 4.62a4.143 4.143 0 004.62 3.593l.92-.115C60.05 25.581 43.604 33.871 31.98 38.038c-14.491 5.195-25.77 5.64-25.88 5.643a4.144 4.144 0 00-4.008 4.262 4.119 4.119 0 004.262 4.012c.502-.015 12.459-.437 28.211-6.05 8.856-3.156 17.188-7.345 24.767-12.451a1.32 1.32 0 10-1.476-2.19c-7.396 4.982-15.53 9.07-24.178 12.152C18.314 48.891 6.76 49.3 6.276 49.314h-.048a1.49 1.49 0 01-1.495-1.45 1.5 1.5 0 011.45-1.542c.116-.004 11.717-.43 26.69-5.797C45.416 36.028 63.44 26.846 78.07 8.642c.728-.907-.042-2.283-1.193-2.138l-4.239.53a1.514 1.514 0 01-1.635-1.109 1.512 1.512 0 011.263-1.863L83.54 2.653c.88-.111 1.682.6 1.682 1.486V15.41c0 .825-.671 1.497-1.497 1.497a1.499 1.499 0 01-1.497-1.497v-3.418c0-.54-.35-1.044-.854-1.235a1.342 1.342 0 00-1.49.4 102.128 102.128 0 01-16.698 16.26 1.321 1.321 0 001.614 2.09 104.683 104.683 0 0014.79-13.91 4.144 4.144 0 004.135 3.952 4.144 4.144 0 004.14-4.139V4.139a4.147 4.147 0 00-1.4-3.103z" fill="#FF855E"/><path d="M59.69 31.62c.391.581.26 1.361-.287 1.783l5.327-3.843a1.321 1.321 0 01-1.544-2.143l-5.33 3.846a1.32 1.32 0 011.834.357z" fill="#FF855E"/></g><defs><clipPath id="clip0"><path fill="#fff" transform="translate(.682)" d="M0 0h90v90H0z"/></clipPath></defs></svg>