<svg width="91" height="90" fill="none" xmlns="http://www.w3.org/2000/svg"><g clip-path="url(#clip0)"><path d="M70.265 25.345c0 .727.59 1.317 1.317 1.317h6.965c1.703 0 1.703-2.635 0-2.635h-6.965c-.727 0-1.317.59-1.317 1.317zm-.915-4.261c.298 0 .599-.102.845-.309L75.53 16.3c1.305-1.095-.388-3.113-1.694-2.019l-5.334 4.477c-.88.739-.332 2.326.847 2.326zm1.205 8.96c-1.304-1.095-2.998.924-1.693 2.018l5.334 4.477c1.282 1.075 3.014-.91 1.694-2.018l-5.335-4.477z" fill="#73ACDC"/><path d="M90.305 46.466c.81-.81.227-2.237-.917-2.25l-5.12-.054-.054-5.12c-.013-1.143-1.44-1.725-2.25-.917l-6.657 6.658a5.939 5.939 0 00-.553.638 23.83 23.83 0 00-10.634-3.353V4.312c0-3.632-4.392-5.636-7.143-3.273-6.428 5.52-13.412 7.872-18.139 8.873-5.154 1.091-8.828.861-8.863.859h-.003a.967.967 0 00-.03-.002h-.004l-.03-.001H15.353c-2.532 0-5.03.66-7.228 1.907-.11.063-.204.133-.284.21-1.003.954.214 2.86 1.586 2.081a12.015 12.015 0 015.926-1.564h13.213v24.043H15.353C6.179 37.525.274 27.236 4.97 19.365c.795-1.357-1.085-2.596-2.054-1.619a1.44 1.44 0 00-.22.29C-3.225 28.188 4.673 40.782 16.37 40.078l-3.712 19.7a4.42 4.42 0 002.671 4.898l9.806 3.985c2.845 1.156 6.065-1.01 6.065-4.081V50.12c4.651-.55 8.35-4.255 8.892-8.909A41.369 41.369 0 0150.44 45.23C29.494 57.502 37.82 89.716 62.435 89.98c18.417.165 30.197-20.621 20.575-36.305.106.072 7.01-6.963 7.295-7.21zm-8.692-4.263l.035 3.276a1.318 1.318 0 001.303 1.303l3.276.036-4.443 4.443c-1.23 1.23-3.382 1.232-4.614 0-1.259-1.259-1.259-3.356 0-4.614l4.443-4.444zM27.784 66.05c-.497.335-1.1.397-1.656.172l-9.806-3.985a1.776 1.776 0 01-1.073-1.97l3.804-20.188h9.513v24.502c0 .599-.285 1.135-.782 1.47zm3.417-18.59v-7.406c1.289.012 3.515.121 6.298.615a7.54 7.54 0 01-6.298 6.792zm0-10.047V13.428c1.613-.013 4.498-.167 8.086-.918 5.054-1.058 12.524-3.56 19.407-9.472 1.078-.926 2.791-.152 2.791 1.274v37.716a23.831 23.831 0 00-8.216 1.802c-9.398-5.758-18.616-6.4-22.068-6.417zm52.585 28.583c-1.172 28.324-41.533 28.317-42.702 0-.146-16.542 18.646-27.003 32.6-18.14a5.914 5.914 0 00.796 4.231l-2.199 2.2c-9.75-8.336-25.206-1.24-25.151 11.709-.101 11.59 12.825 19.129 22.848 13.31.082-.046.155-.098.22-.153 1.115-.933-.124-2.932-1.523-2.137-8.298 4.815-18.994-1.427-18.91-11.02-.05-10.61 12.536-16.53 20.646-9.84l-4.318 4.318c-4.317-2.918-10.315.273-10.283 5.522a6.633 6.633 0 006.625 6.625c5.249.03 8.44-5.966 5.521-10.283l4.318-4.318c3.324 3.907 3.793 10.256.919 14.658-.841 1.35 1.05 2.654 2.039 1.647.07-.072.136-.156.196-.252 3.53-5.4 2.88-13.21-1.283-17.924l2.198-2.198a5.944 5.944 0 004.233.795 21.201 21.201 0 013.21 11.25zm-17.36 0c-.22 5.293-7.763 5.292-7.981 0-.051-2.888 3.157-4.892 5.722-3.595l-2.663 2.663c-1.205 1.205.658 3.067 1.863 1.863l2.663-2.663c.253.524.396 1.111.396 1.732z" fill="#73ACDC"/><path d="M9.427 14.966c-1.372.78-2.59-1.127-1.586-2.082-.549.408-1.853 1.335-2.624 2.082-.864.837-1.847 2.191-2.3 2.78.97-.977 2.849.262 2.054 1.62 0 0 .997-1.586 1.807-2.413.917-.934 2.649-1.987 2.649-1.987zm59.248 62.05c1.399-.795 2.638 1.204 1.524 2.137.54-.377 1.946-1.387 2.858-2.293.738-.733 1.753-1.999 2.175-2.535-.99 1.007-2.88-.298-2.04-1.647 0 0-1.055 1.59-1.964 2.456-.885.843-2.553 1.882-2.553 1.882z" fill="#73ACDC"/><path d="M68.675 77.016c1.399-.795 2.638 1.204 1.524 2.137.54-.377 1.946-1.387 2.858-2.293.738-.733 1.753-1.999 2.175-2.535-.99 1.007-2.88-.298-2.04-1.647 0 0-1.055 1.59-1.964 2.456-.885.843-2.553 1.882-2.553 1.882z" fill="#FF855E"/><path fill-rule="evenodd" clip-rule="evenodd" d="M89.388 44.217c1.144.012 1.726 1.44.917 2.249-.092.08-.87.864-1.889 1.888-2.14 2.155-5.334 5.371-5.406 5.322 9.622 15.684-2.158 36.47-20.575 36.305-24.615-.265-32.941-32.48-11.994-44.751l2.828-1.4a23.827 23.827 0 018.216-1.802l2.635.04a23.83 23.83 0 0110.634 3.353 6 6 0 01.553-.638l6.658-6.658c.81-.808 2.236-.226 2.249.918l.055 5.119 5.119.055zM8.125 12.675c-.11.063-.204.133-.284.21l.284-.21zm-5.208 5.071a1.44 1.44 0 00-.22.29s.081-.11.22-.29zM81.648 45.48l-.035-3.276-4.443 4.444c-1.259 1.258-1.259 3.355 0 4.614 1.232 1.232 3.384 1.23 4.614 0l4.443-4.443-3.276-.035a1.318 1.318 0 01-1.303-1.304zM41.084 65.995c1.17 28.318 41.53 28.325 42.702 0 0-4.003-1.107-7.872-3.21-11.249a5.944 5.944 0 01-4.233-.795l-2.198 2.198c4.164 4.714 4.813 12.524 1.283 17.924-.06.096-.126.18-.196.252-.99 1.007-2.88-.298-2.04-1.647 2.875-4.402 2.406-10.751-.918-14.658l-4.318 4.317c2.919 4.318-.272 10.315-5.52 10.284a6.633 6.633 0 01-6.626-6.625c-.032-5.25 5.966-8.44 10.283-5.522l4.318-4.317c-8.11-6.69-20.695-.771-20.647 9.838-.083 9.594 10.613 15.836 18.91 11.02 1.4-.794 2.64 1.205 1.525 2.138-.066.055-.14.106-.221.153-10.023 5.819-22.949-1.72-22.848-13.31-.055-12.949 15.401-20.045 25.151-11.71l2.2-2.199a5.914 5.914 0 01-.796-4.232c-13.955-8.862-32.747 1.599-32.6 18.14zm17.36 0c.22 5.293 7.762 5.294 7.982 0a3.97 3.97 0 00-.396-1.731l-2.663 2.663c-1.205 1.204-3.068-.659-1.863-1.863l2.663-2.663c-2.565-1.297-5.773.707-5.722 3.595z" fill="#FF855E"/></g><defs><clipPath id="clip0"><path fill="#fff" transform="translate(.682)" d="M0 0h90v90H0z"/></clipPath></defs></svg>