<svg width="91" height="90" fill="none" xmlns="http://www.w3.org/2000/svg"><g clip-path="url(#clip0)"><path d="M89.333 80.53h-7.429V43.948a5.069 5.069 0 00-5.063-5.063h-8.816C82.93 11.633 47.602-13.974 26.34 8.764a1.317 1.317 0 101.974 1.745C36.009 1.802 49.077.166 58.71 6.704c17.397 11.793 11.143 39.092-9.622 42.149-.364.054-.69.258-.897.563l-2.514 3.706-2.371-3.66a1.316 1.316 0 00-.92-.589 22.982 22.982 0 01-9.733-3.773c-9.31-6.096-12.863-19.084-7.981-29.057l.04-.094a1.318 1.318 0 00-2.424-1.028c-3.594 7.52-3.187 16.77 1.054 23.964h-8.82a5.069 5.069 0 00-5.063 5.063V80.53H2.03c-.728 0-1.317.59-1.317 1.317v3.09A5.069 5.069 0 005.775 90h79.813a5.069 5.069 0 005.063-5.063v-3.09c0-.727-.59-1.317-1.318-1.317zM66.276 41.51c.053.006.107.01.162.01H76.84a2.43 2.43 0 012.428 2.427V80.53h-3.595V46.444c0-.727-.59-1.317-1.317-1.317H62.94a25.757 25.757 0 003.335-3.617zm-54.182 2.438a2.43 2.43 0 012.428-2.428h10.403c.056 0 .112-.004.166-.01a25.84 25.84 0 003.33 3.617H17.006c-.727 0-1.317.59-1.317 1.317V80.53h-3.595V43.948zm75.922 40.99a2.43 2.43 0 01-2.428 2.427H5.775a2.43 2.43 0 01-2.428-2.428v-1.772h59.149a1.318 1.318 0 000-2.635H18.324V47.762h13.012c.158 0 .31-.028.45-.079a25.544 25.544 0 009.63 3.706l3.13 4.833a1.317 1.317 0 002.195.023l3.311-4.878a25.876 25.876 0 009.401-3.61c.119.013 13.465 0 13.586.005V80.53h-3.525a1.318 1.318 0 000 2.635h18.502v1.772z" fill="#FF855E"/><path d="M63.813 81.847c0 .728-.59 1.318-1.317 1.318h7.018a1.318 1.318 0 010-2.635h-7.018c.727 0 1.317.59 1.317 1.317zm-37.36-71.224a1.317 1.317 0 01-.155-1.81c-.245.29-1.516 1.817-2.257 2.957-.667 1.026-1.537 2.725-1.719 3.083a1.317 1.317 0 012.39 1.096c.165-.386.82-1.885 1.407-2.796.634-.985 1.81-2.242 2.118-2.565-.49.47-1.266.493-1.784.035z" fill="#FF855E"/><path d="M63.813 81.847c0 .728-.59 1.318-1.317 1.318h7.018a1.318 1.318 0 010-2.635h-7.018c.727 0 1.317.59 1.317 1.317z" fill="#73ACDC"/><path fill-rule="evenodd" clip-rule="evenodd" d="M81.904 80.53h7.43c.727 0 1.317.59 1.316 1.317v3.09A5.069 5.069 0 0185.588 90H5.775a5.069 5.069 0 01-5.062-5.063v-3.09c0-.727.59-1.317 1.317-1.317h7.429V43.947a5.069 5.069 0 015.063-5.062h8.82l1.749 2.624a1.31 1.31 0 01-.166.01H14.522a2.43 2.43 0 00-2.428 2.429V80.53h3.595V46.444c0-.727.59-1.317 1.317-1.317h11.415l3.364 2.556c-.14.051-.291.079-.449.079H18.324V80.53h44.172a1.318 1.318 0 010 2.635H3.347v1.772a2.43 2.43 0 002.428 2.428h79.813a2.43 2.43 0 002.428-2.428v-1.772H69.514a1.318 1.318 0 010-2.635h3.525V47.762c-.045-.002-1.901 0-4.228 0-3.96.002-9.283.004-9.358-.004l3.488-2.631h11.416c.727 0 1.317.59 1.317 1.317V80.53h3.595V43.947a2.43 2.43 0 00-2.428-2.428H66.438a1.33 1.33 0 01-.162-.01l1.75-2.624h8.815a5.069 5.069 0 015.063 5.063V80.53zM26.34 8.764a1.365 1.365 0 00-.041.049l.04-.05zm1.898 1.824a1.35 1.35 0 00.076-.08l-.076.08zm-3.565 5.455l.04-.094-.04.094zm-2.35-1.19a1.477 1.477 0 00-.034.068l.034-.068z" fill="#73ACDC"/><path d="M41.112 37.441c.252 6.064 8.89 6.06 9.14 0V26.783c-.253-6.064-8.89-6.059-9.14 0v10.658zm2.635-10.658c.106-2.567 3.764-2.565 3.87 0v10.658c-.107 2.567-3.765 2.566-3.87 0V26.783zm1.935-6.705c2.52 0 4.57-2.05 4.57-4.57-.252-6.062-8.89-6.06-9.14 0 0 2.52 2.05 4.57 4.57 4.57zm0-6.504c1.066 0 1.934.868 1.934 1.934-.106 2.567-3.763 2.567-3.87 0 0-1.066.869-1.934 1.936-1.934z" fill="#FF855E"/><path d="M24.926 58.419h9.8c1.744-.06 1.743-2.575 0-2.635h-9.8c-1.745.06-1.744 2.575 0 2.635zm41.512-2.635h-9.8c-1.745.06-1.743 2.575 0 2.635h9.8c1.744-.06 1.743-2.575 0-2.635zm0 7.641H24.925c-1.744.06-1.743 2.575 0 2.635h41.513c1.744-.06 1.743-2.575 0-2.635zm-8.783 7.641H33.709c-1.745.06-1.744 2.575 0 2.635h23.946c1.744-.06 1.743-2.575 0-2.635z" fill="#73ACDC"/></g><defs><clipPath id="clip0"><path fill="#fff" transform="translate(.682)" d="M0 0h90v90H0z"/></clipPath></defs></svg>