<svg width="91" height="90" fill="none" xmlns="http://www.w3.org/2000/svg"><g clip-path="url(#clip0)"><path d="M85.438 40.116l-5.404-.413a.418.418 0 01-.373-.297 35.39 35.39 0 00-2.8-6.899.422.422 0 01.06-.475l3.639-4.11a5.493 5.493 0 00-.228-7.516l-5.576-5.577c-2.016-2.015-5.289-2.14-7.452-.284l-4.114 3.53a.42.42 0 01-.475.053 35.37 35.37 0 00-6.858-2.905.42.42 0 01-.292-.378l-.332-5.474a5.495 5.495 0 00-5.476-5.152h-7.886c-2.85 0-5.253 2.226-5.47 5.068l-.413 5.404a.415.415 0 01-.293.372 35.398 35.398 0 00-7.403 3.067.418.418 0 01-.471-.055l-4.113-3.53c-2.163-1.857-5.436-1.732-7.452.284l-5.576 5.577a5.495 5.495 0 00-.229 7.516l3.64 4.11a.421.421 0 01.06.475 35.413 35.413 0 00-2.8 6.899.419.419 0 01-.373.297l-5.405.414c-2.841.216-5.067 2.62-5.067 5.47v7.886c0 2.895 2.263 5.3 5.152 5.476l5.474.333a.42.42 0 01.377.292 35.454 35.454 0 002.905 6.858.42.42 0 01-.053.475l-3.53 4.114c-1.855 2.163-1.73 5.436.284 7.452l5.577 5.577a5.446 5.446 0 001.719 1.164 1.318 1.318 0 001.817-1.433v-6.916a7.228 7.228 0 014.919-6.86l2.77-.93a5.813 5.813 0 001.484-.75 15.53 15.53 0 003.092.625l-2.946 10.415c-.124.435-.015.903.287 1.24l3.391 3.781c.243.27.586.429.95.438h.032c.351 0 .688-.14.936-.39l3.751-3.782c.344-.347.468-.855.322-1.322l-3.26-10.42c1.09-.133 2.162-.38 3.207-.74.51.39 1.083.7 1.694.904l2.768.931a7.257 7.257 0 014.264 3.846 7.17 7.17 0 01.654 2.884c0 .024.001.045.003.07v7.773a1.318 1.318 0 102.637 0v-7.713c0-.068 0-.135-.004-.202a9.787 9.787 0 00-.514-2.957 5.6 5.6 0 011.44-.73l2.251-.757c.417-.14.808-.332 1.169-.572.705.211 1.422.362 2.149.452l-2.313 8.178a1.32 1.32 0 00.287 1.239l2.755 3.072c.243.27.586.428.949.437l.033.001c.351 0 .688-.14.936-.39l3.047-3.073c.344-.346.468-.855.322-1.322l-2.56-8.184c.757-.11 1.502-.287 2.233-.531.408.298.858.531 1.344.693l2.248.758a5.623 5.623 0 013.829 5.336v5.409a1.318 1.318 0 001.801 1.498 5.464 5.464 0 001.735-1.171l5.576-5.577c2.015-2.015 2.14-5.288.284-7.451l-3.53-4.114a.421.421 0 01-.053-.476 35.392 35.392 0 002.905-6.858.42.42 0 01.378-.292l5.473-.333a5.493 5.493 0 005.153-5.475v-7.887c0-2.85-2.226-5.253-5.068-5.47zm-44.953 8.317L32.37 45.82a1.32 1.32 0 00-1.014.086l-3.068 1.601v-1.546a3.27 3.27 0 013.263-3.27h5.671a3.27 3.27 0 013.263 3.27v2.47zm-12.197 2.05l3.799-1.984 8.398 2.704v3.973a2.68 2.68 0 01-1.277 2.276l-3.44 2.098c-.852.52-1.91.52-2.763 0l-3.44-2.098a2.68 2.68 0 01-1.277-2.276v-4.693zm6.04 15.908a12.99 12.99 0 01-3.022-.29 5.885 5.885 0 00.604-2.59v-1.553a5.28 5.28 0 002.476.62c.85 0 1.7-.208 2.476-.62v1.553c0 .855.184 1.685.53 2.443a13.039 13.039 0 01-3.064.437zm-.073 15.194l-1.973-2.201 1.989-7.032 2.193 7.007-2.209 2.226zM64.236 54.88l-6.268-2.018a1.32 1.32 0 00-1.014.086l-2.13 1.113v-.848a2.408 2.408 0 012.403-2.41h4.607a2.409 2.409 0 012.402 2.41v1.667zm-9.412 2.155l2.861-1.494 6.551 2.109v3.047c0 .665-.351 1.292-.918 1.638l-2.794 1.703a1.901 1.901 0 01-1.987 0l-2.794-1.703a1.929 1.929 0 01-.919-1.638v-3.662zm4.653 12.523a10.38 10.38 0 01-2.095-.171 5.02 5.02 0 00.384-1.92v-.87a4.507 4.507 0 003.528 0v.87c0 .63.117 1.242.339 1.814-.707.168-1.428.261-2.156.277zm-.044 12.23l-1.337-1.491 1.352-4.782 1.488 4.757-1.503 1.516zM87.87 53.473a2.853 2.853 0 01-2.675 2.844l-5.474.333a3.068 3.068 0 00-2.74 2.157 32.764 32.764 0 01-2.688 6.347 3.067 3.067 0 00.357 3.47l3.53 4.114a2.862 2.862 0 01-.148 3.87l-4.61 4.612v-2.907a8.258 8.258 0 00-5.624-7.835l-1.778-.599c5.126-5.1 8.235-11.976 8.597-19.142a1.318 1.318 0 00-2.633-.133c-.333 6.574-3.212 12.884-7.955 17.538a2.39 2.39 0 01-.097-.675v-2.419l.76-.463a4.58 4.58 0 002.182-3.889v-7.484a5.048 5.048 0 00-5.04-5.046h-4.606a5.048 5.048 0 00-5.04 5.046v7.484c0 1.578.837 3.068 2.183 3.89l.76.462v2.418a2.388 2.388 0 01-1.615 2.255l-2.252.757c-.633.214-1.228.5-1.781.85a9.899 9.899 0 00-5.016-3.822l-2.77-.931a3.164 3.164 0 01-1.3-.826 3.222 3.222 0 01-.897-2.238v-3.147l1.082-.66a5.335 5.335 0 002.54-4.527v-9.216c0-3.257-2.646-5.907-5.9-5.907h-5.67c-3.253 0-5.9 2.65-5.9 5.907v9.215c0 1.837.974 3.572 2.541 4.528l1.082.659v3.147c0 .896-.377 1.76-1.034 2.371a3.181 3.181 0 01-1.163.693l-2.771.932a9.863 9.863 0 00-6.714 9.358v4.355l-4.612-4.611a2.863 2.863 0 01-.147-3.871l3.53-4.114c.83-.966.973-2.361.357-3.47a32.8 32.8 0 01-2.688-6.347 3.066 3.066 0 00-2.74-2.157l-5.474-.333a2.853 2.853 0 01-2.675-2.844v-7.886a2.862 2.862 0 012.631-2.842l5.405-.412a3.067 3.067 0 002.706-2.2 32.755 32.755 0 012.592-6.383 3.07 3.07 0 00-.412-3.465l-3.639-4.111a2.853 2.853 0 01.118-3.904l5.577-5.576a2.86 2.86 0 013.87-.149l4.113 3.53c.967.83 2.36.975 3.468.36a32.776 32.776 0 016.85-2.838 3.063 3.063 0 002.196-2.706l.412-5.404a2.863 2.863 0 012.841-2.632h7.886a2.853 2.853 0 012.844 2.676l.333 5.474a3.066 3.066 0 002.157 2.74 32.75 32.75 0 016.346 2.689 3.068 3.068 0 003.47-.358l4.115-3.53a2.862 2.862 0 013.87.148l5.576 5.577a2.853 2.853 0 01.118 3.903l-3.64 4.11a3.07 3.07 0 00-.41 3.466 32.703 32.703 0 012.59 6.384 3.068 3.068 0 002.707 2.199l5.404.413a2.862 2.862 0 012.632 2.84v7.887z" fill="#73ACDC"/><path fill-rule="evenodd" clip-rule="evenodd" d="M73.42 81.22v3.557a5.47 5.47 0 01-.835.443 1.318 1.318 0 01-1.801-1.505v-5.402a5.623 5.623 0 00-3.829-5.336l-2.248-.758a4.911 4.911 0 01-1.344-.693c-.73.244-1.476.42-2.233.531l2.56 8.184c.146.467.022.976-.322 1.322l-3.047 3.073c-.248.25-.585.39-.936.39h-.033a1.319 1.319 0 01-.949-.438l-2.755-3.072a1.32 1.32 0 01-.287-1.24l2.313-8.177c-.727-.09-1.444-.24-2.15-.452a4.93 4.93 0 01-1.168.572l-2.251.758a5.6 5.6 0 00-1.44.729 9.766 9.766 0 01.518 3.159v7.713a1.318 1.318 0 11-2.637 0v-7.774a7.17 7.17 0 00-.656-2.953 7.257 7.257 0 00-4.265-3.846l-2.768-.931a5.845 5.845 0 01-1.694-.904c-1.045.36-2.118.607-3.206.74l3.26 10.42a1.32 1.32 0 01-.323 1.322l-3.75 3.782c-.249.25-.586.39-.937.39h-.033a1.32 1.32 0 01-.949-.438l-3.391-3.782a1.316 1.316 0 01-.287-1.24l2.946-10.414a15.598 15.598 0 01-3.092-.625 5.85 5.85 0 01-1.484.75l-2.77.93a7.228 7.228 0 00-4.919 6.86v6.916a1.318 1.318 0 01-1.817 1.433 5.446 5.446 0 01-.82-.436v-7.913a9.863 9.863 0 016.715-9.358l2.771-.932a3.181 3.181 0 001.163-.693 3.248 3.248 0 001.034-2.371v-3.147l-1.082-.66a5.334 5.334 0 01-2.541-4.527v-9.215c0-3.257 2.647-5.907 5.9-5.907h5.67c3.254 0 5.9 2.65 5.9 5.907v9.215a5.335 5.335 0 01-2.54 4.528l-1.082.659v3.147a3.224 3.224 0 002.197 3.064l2.77.931a9.899 9.899 0 015.016 3.822 8.227 8.227 0 011.782-.85l2.251-.757a2.388 2.388 0 001.615-2.254v-2.419l-.76-.463a4.583 4.583 0 01-2.182-3.889v-7.484a5.048 5.048 0 015.039-5.046h4.607a5.048 5.048 0 015.039 5.046v7.484a4.58 4.58 0 01-2.182 3.889l-.76.463v2.418c0 .232.033.46.097.676 0 0 .152.723.444 1.068.427.502 1.547.67 1.547.67l1.778.598a8.258 8.258 0 015.623 7.835v2.907zM40.485 48.433L32.37 45.82a1.32 1.32 0 00-1.014.086l-3.068 1.601v-1.546a3.27 3.27 0 013.263-3.27h5.671a3.27 3.27 0 013.263 3.27v2.47zm-12.197 2.05l3.799-1.984 8.398 2.704v3.973a2.68 2.68 0 01-1.277 2.276l-3.44 2.098c-.852.52-1.91.52-2.763 0l-3.44-2.098a2.68 2.68 0 01-1.277-2.276v-4.693zm6.04 15.908a12.99 12.99 0 01-3.022-.29 5.885 5.885 0 00.604-2.59v-1.553a5.28 5.28 0 002.476.62c.85 0 1.7-.208 2.476-.62v1.553c0 .855.184 1.685.53 2.443a13.039 13.039 0 01-3.064.437zm-.073 15.194l-1.973-2.201 1.989-7.032 2.193 7.007-2.209 2.226zM64.236 54.88l-6.268-2.018a1.32 1.32 0 00-1.014.086l-2.13 1.113v-.848a2.408 2.408 0 012.403-2.41h4.607a2.409 2.409 0 012.402 2.41v1.667zm-9.412 2.155l2.861-1.494 6.551 2.109v3.047c0 .665-.351 1.292-.918 1.638l-2.794 1.703a1.901 1.901 0 01-1.987 0l-2.794-1.703a1.929 1.929 0 01-.919-1.638v-3.662zm4.653 12.523a10.38 10.38 0 01-2.095-.171 5.02 5.02 0 00.384-1.92v-.87a4.507 4.507 0 003.528 0v.87c0 .63.117 1.242.339 1.814-.707.168-1.428.261-2.156.277zm-.044 12.23l-1.337-1.491 1.352-4.782 1.488 4.757-1.503 1.516z" fill="#FF855E"/><path d="M43.992 20.11c-7.166.361-13.94 3.388-19.073 8.522-5.134 5.134-8.16 11.908-8.523 19.075-.314 6.187 1.288 12.185 4.63 17.345a1.316 1.316 0 001.823.39 1.319 1.319 0 00.39-1.823c-3.04-4.693-4.495-10.149-4.21-15.78.33-6.512 3.084-12.671 7.754-17.342 4.67-4.671 10.83-7.425 17.342-7.754 13.503-.685 25.334 8.82 27.535 22.11a1.319 1.319 0 002.602-.43c-2.421-14.615-15.437-25.067-30.27-24.313z" fill="#73ACDC"/></g><defs><clipPath id="clip0"><path fill="#fff" transform="translate(.682)" d="M0 0h90v90H0z"/></clipPath></defs></svg>