<svg width="91" height="90" fill="none" xmlns="http://www.w3.org/2000/svg"><g clip-path="url(#clip0)"><path d="M82.096 59.358a9.39 9.39 0 002.37-6.242v-2.928c0-5.2-4.231-9.431-9.431-9.431-5.2 0-9.431 4.23-9.431 9.43v2.93a9.39 9.39 0 002.37 6.242 11.273 11.273 0 00-3.609 1.596 15.376 15.376 0 00-7.585-5.711 15.166 15.166 0 00-2.218-.577 12.7 12.7 0 003.653-6.944c.525.16 1.074.244 1.636.244a5.642 5.642 0 005.636-5.636 5.624 5.624 0 00-2.128-4.41c.15-.354.235-.743.235-1.153v-3.622c0-6.175-5.024-11.2-11.2-11.2H49.39c-.14 0-.28.008-.42.019a6.017 6.017 0 00-4.693-2.251h-1.612c.015-.292.025-.585.025-.879 0-9.59-7.803-17.393-17.393-17.393S7.904 9.245 7.904 18.835s7.803 17.393 17.393 17.393c.833 0 1.658-.06 2.472-.176v1.16c0 .28.04.551.112.808a5.626 5.626 0 00-2.005 4.311 5.642 5.642 0 005.636 5.636c.562 0 1.112-.085 1.637-.244a12.7 12.7 0 003.654 6.945c-.747.136-1.476.326-2.182.567a1.324 1.324 0 00-.218.076 15.417 15.417 0 00-7.4 5.653 11.216 11.216 0 00-3.613-1.606 9.39 9.39 0 002.37-6.242v-2.929c0-5.2-4.23-9.43-9.431-9.43-5.2 0-9.43 4.23-9.43 9.43v2.929a9.39 9.39 0 002.369 6.242C4.345 60.565.682 65.013.682 70.302v11.4a1.318 1.318 0 002.636 0v-11.4c0-4.76 3.873-8.633 8.633-8.633h.411c.289.135.586.255.89.36l-2.639 10.297a2.357 2.357 0 00.73 2.366l3.423 3.009a2.363 2.363 0 001.563.587c.559 0 1.117-.196 1.563-.587l3.422-3.009a2.357 2.357 0 00.73-2.366L19.406 62.03a9.3 9.3 0 00.89-.36h.41a8.58 8.58 0 014.97 1.58 15.171 15.171 0 00-1.445 6.372v.017c.004.72.587 1.305 1.31 1.31h.009c.724 0 1.313-.584 1.318-1.31.034-5.086 3.099-9.473 7.465-11.454l10.03 19.104v9.94a1.318 1.318 0 002.637 0v-9.94L57.032 58.18c4.397 1.988 7.466 6.413 7.466 11.544v17.515a1.318 1.318 0 002.636 0V69.724a15.21 15.21 0 00-1.443-6.483 8.639 8.639 0 014.966-1.572h.41a9.3 9.3 0 00.89.36L69.32 72.326a2.357 2.357 0 00.73 2.366l3.422 3.008a2.362 2.362 0 001.563.588c.56 0 1.118-.196 1.563-.588l3.423-3.008a2.356 2.356 0 00.73-2.366l-.421-1.644a1.318 1.318 0 00-2.554.654l.38 1.485-3.12 2.743-3.121-2.743 2.635-10.286a9.403 9.403 0 00.97 0l.67 2.614a1.319 1.319 0 002.555-.654l-.632-2.466c.306-.106.605-.227.896-.363l.06.003h.344c4.76 0 8.633 3.873 8.633 8.633v11.4a1.318 1.318 0 102.637 0v-11.4c0-5.29-3.664-9.737-8.586-10.944zm-72.561-9.17a6.802 6.802 0 016.794-6.795 6.802 6.802 0 016.794 6.795v2.928a6.802 6.802 0 01-6.794 6.795 6.802 6.802 0 01-6.794-6.795v-2.928zm9.914 22.633l-3.12 2.743-3.12-2.743 2.635-10.286a9.398 9.398 0 00.97 0l2.635 10.286zm40.402-27.49a2.97 2.97 0 01-1.451-.377v-3.495c0-.523-.035-1.055-.101-1.585a42.412 42.412 0 002.643-.177 2.94 2.94 0 00.27-.04 2.995 2.995 0 011.638 2.674c0 1.654-1.345 3-2.999 3zm-7.456-20.748c4.721 0 8.562 3.842 8.562 8.563v3.622c0 .158-.118.29-.275.305-2.255.224-6.586.45-10.263-.551a4.966 4.966 0 01-1.58-.755 8.916 8.916 0 001.465-4.898V25.74c0-.395-.04-.782-.113-1.157h2.204zm-17.42 8.706a1.319 1.319 0 00-1.469-2.19 14.683 14.683 0 01-8.21 2.493c-8.136 0-14.756-6.62-14.756-14.757 0-8.136 6.62-14.756 14.757-14.756 8.136 0 14.756 6.62 14.756 14.756a14.69 14.69 0 01-2.423 8.103 1.318 1.318 0 002.202 1.45 17.289 17.289 0 002.498-6.038h1.947c1.87 0 3.39 1.521 3.39 3.39v5.129c0 2.815-1.868 5.29-4.542 6.017-4.644 1.264-10.254.861-12.45.63a.303.303 0 01-.27-.304v-1.747a17.298 17.298 0 004.57-2.176zm-6.462 9.042c0-.937.434-1.804 1.159-2.367.23.086.472.147.726.174.723.077 1.613.153 2.617.205-.033.374-.051.747-.051 1.116v3.495a2.973 2.973 0 01-1.452.376c-1.654 0-3-1.345-3-2.999zm7.087 3.244v-4.116c0-.347.021-.699.059-1.052 2.558-.01 5.467-.244 8.159-.976a8.69 8.69 0 003.256-1.691 7.617 7.617 0 002.653 1.326c1.934.527 4.005.75 5.909.814.083.529.127 1.06.127 1.58v4.115c0 5.559-4.523 10.081-10.081 10.081-5.56 0-10.082-4.522-10.082-10.081zm10.082 28.551L41.64 66.43l2.996-8.183c.345.029.693.047 1.046.047.352 0 .7-.018 1.045-.047l2.996 8.183-4.041 7.697zM39.53 57.06h.693c.573.274 1.17.505 1.787.691l-2.024 5.528-3.116-5.934a12.595 12.595 0 012.66-.285zm11.847 6.22l-2.023-5.529a12.62 12.62 0 001.789-.692l.019.001h.67c.914 0 1.803.1 2.662.284l-3.117 5.935zM68.24 53.115v-2.929a6.802 6.802 0 016.794-6.794 6.802 6.802 0 016.795 6.794v2.93a6.802 6.802 0 01-6.794 6.793 6.802 6.802 0 01-6.795-6.794z" fill="#FF855E"/><path d="M35.335 31.46a1.319 1.319 0 01-.145 1.649c.443-.373 1.472-1.252 2.141-1.922.802-.802 1.867-2.047 2.302-2.562a1.319 1.319 0 01-2.003-1.687s-.973 1.3-1.674 2.043c-.878.931-2.45 2.118-2.45 2.118a1.318 1.318 0 011.829.36zm-9.788 43.23c-.728 0-1.318.59-1.318 1.319v11.23a1.318 1.318 0 002.637 0V76.01c0-.728-.59-1.319-1.319-1.319zm25.096 3.575h-.034a1.318 1.318 0 00-.003 2.636h.034a1.318 1.318 0 00.003-2.636z" fill="#FF855E"/><path d="M25.54 70.948a1.318 1.318 0 01-1.309-1.31l-.002 6.37a1.318 1.318 0 012.637 0l.002-6.37a1.318 1.318 0 01-1.318 1.31h-.01zm53.185-1.216a1.318 1.318 0 011.604.95l-1.585-6.187a1.318 1.318 0 11-2.555.654l1.586 6.187a1.318 1.318 0 01.95-1.604z" fill="#FF855E"/><path d="M25.547 74.69c-.728 0-1.318.59-1.318 1.319v11.23a1.318 1.318 0 002.637 0V76.01c0-.728-.59-1.319-1.319-1.319zm25.096 3.575h-.034a1.318 1.318 0 00-.003 2.636h.034a1.318 1.318 0 00.003-2.636z" fill="#73ACDC"/><path d="M25.54 70.948a1.318 1.318 0 01-1.309-1.31l-.002 6.37a1.318 1.318 0 012.637 0l.002-6.37a1.318 1.318 0 01-1.318 1.31h-.01z" fill="#73ACDC"/><path fill-rule="evenodd" clip-rule="evenodd" d="M84.466 53.116a9.39 9.39 0 01-2.37 6.242c4.922 1.207 8.586 5.655 8.586 10.944v11.4a1.318 1.318 0 01-2.637 0v-11.4c0-4.76-3.872-8.633-8.633-8.633h-.345l-.037-.001-.022-.002a9.22 9.22 0 01-.896.363l.632 2.466a1.318 1.318 0 11-2.555.654l-.67-2.614a9.635 9.635 0 01-.97 0L71.914 72.82l3.12 2.743 3.12-2.743-.38-1.485a1.318 1.318 0 112.555-.654l.421 1.644a2.356 2.356 0 01-.73 2.366L76.598 77.7a2.363 2.363 0 01-1.564.588 2.362 2.362 0 01-1.563-.588l-3.422-3.008a2.357 2.357 0 01-.73-2.366l2.638-10.297a9.364 9.364 0 01-.89-.36h-.41a8.639 8.639 0 00-4.966 1.572 15.21 15.21 0 011.443 6.483v17.515a1.318 1.318 0 11-2.636 0V69.724c0-5.131-3.07-9.556-7.466-11.544L47 77.288v9.94a1.318 1.318 0 01-2.637 0v-9.94l-10.03-19.104c-4.366 1.98-7.431 6.368-7.465 11.454a1.318 1.318 0 01-1.318 1.31h-.01a1.318 1.318 0 01-1.309-1.31v-.017a15.171 15.171 0 011.445-6.372 8.584 8.584 0 00-4.97-1.58h-.41a9.422 9.422 0 01-.89.36l2.638 10.297a2.357 2.357 0 01-.73 2.366l-3.422 3.009a2.363 2.363 0 01-1.563.587 2.363 2.363 0 01-1.563-.587l-3.422-3.009a2.357 2.357 0 01-.73-2.366l2.638-10.297a9.42 9.42 0 01-.89-.36h-.41c-4.761 0-8.634 3.873-8.634 8.633v11.4a1.318 1.318 0 01-2.636 0v-11.4c0-5.29 3.663-9.737 8.586-10.944a9.39 9.39 0 01-2.37-6.242v-2.929c0-5.2 4.23-9.43 9.431-9.43 5.2 0 9.431 4.23 9.431 9.43v2.929a9.39 9.39 0 01-2.37 6.242c1.308.321 2.527.872 3.613 1.606a15.417 15.417 0 017.4-5.653c.071-.032.144-.058.218-.076a15.122 15.122 0 012.182-.567 12.7 12.7 0 01-3.654-6.945 5.638 5.638 0 01-1.637.244 5.642 5.642 0 01-5.636-5.636c0-1.685.748-3.252 2.005-4.31a2.96 2.96 0 01-.112-.81v-1.159l2.636-.587v1.747c0 .157.116.288.27.304 2.196.232 7.806.634 12.45-.63 2.674-.728 4.542-3.202 4.542-6.017V25.74c0-1.869-1.52-3.39-3.39-3.39H42.33l.335-2.636h1.612c1.895 0 3.587.88 4.693 2.25.14-.01.28-.017.42-.017h3.005c6.175 0 11.2 5.024 11.2 11.2v3.621c0 .41-.086.799-.236 1.154a5.624 5.624 0 012.128 4.41 5.642 5.642 0 01-5.636 5.635 5.633 5.633 0 01-1.636-.244 12.7 12.7 0 01-3.653 6.944 15.166 15.166 0 012.36.627 15.376 15.376 0 017.443 5.661 11.273 11.273 0 013.61-1.596 9.39 9.39 0 01-2.371-6.243v-2.928c0-5.2 4.23-9.431 9.43-9.431 5.2 0 9.431 4.23 9.431 9.43v2.93zM39.633 28.625l.199-.237a1.319 1.319 0 01-.199.237zm-4.658 4.664l.215-.18a1.328 1.328 0 01-.215.18zM16.329 43.393a6.802 6.802 0 00-6.794 6.795v2.928a6.802 6.802 0 006.794 6.795 6.802 6.802 0 006.794-6.795v-2.928a6.802 6.802 0 00-6.794-6.795zm0 32.171l3.12-2.743-2.635-10.286a9.634 9.634 0 01-.97 0L13.208 72.82l3.121 2.743zm42.07-30.61c.443.246.938.376 1.452.376 1.654 0 3-1.345 3-2.999a2.995 2.995 0 00-1.64-2.674 2.94 2.94 0 01-.269.04c-.71.07-1.618.14-2.643.177.066.53.1 1.062.1 1.585v3.495zm2.558-11.808c0-4.721-3.84-8.563-8.562-8.563H50.19c.073.375.113.762.113 1.157v5.129c0 1.789-.534 3.48-1.465 4.898.478.342 1.014.6 1.58.755 3.678 1 8.008.775 10.263.55a.305.305 0 00.275-.304v-3.622zm-31.285 6.818a2.994 2.994 0 00-1.16 2.367c0 1.654 1.346 3 3 3 .515 0 1.01-.131 1.452-.377v-3.495c0-.369.018-.742.051-1.116a49.417 49.417 0 01-2.617-.205 2.948 2.948 0 01-.726-.174zM35.6 41.46v4.116c0 5.559 4.523 10.081 10.082 10.081 5.558 0 10.08-4.522 10.08-10.08V41.46c0-.52-.043-1.051-.126-1.58-1.904-.064-3.975-.287-5.909-.814a7.617 7.617 0 01-2.653-1.327 8.69 8.69 0 01-3.256 1.692c-2.692.732-5.6.965-8.16.976a9.983 9.983 0 00-.058 1.053zm6.04 24.97l4.042 7.697 4.041-7.697-2.995-8.183c-.346.029-.694.047-1.046.047-.353 0-.701-.018-1.046-.047L41.64 66.43zm-1.417-9.37h-.693c-.912 0-1.8.1-2.66.285l3.116 5.934 2.024-5.528a12.624 12.624 0 01-1.787-.69zm9.13.691l2.024 5.528 3.117-5.935a12.662 12.662 0 00-2.661-.284h-.691a12.62 12.62 0 01-1.788.691zm18.887-7.563v2.93a6.802 6.802 0 006.794 6.793 6.802 6.802 0 006.795-6.794v-2.929a6.802 6.802 0 00-6.794-6.794 6.802 6.802 0 00-6.795 6.794z" fill="#73ACDC"/><path d="M78.725 69.732a1.318 1.318 0 011.604.95l-1.585-6.187a1.318 1.318 0 11-2.555.654l1.586 6.187a1.318 1.318 0 01.95-1.604z" fill="#73ACDC"/><path d="M36.296 12.573l-2.383-2.382a2.132 2.132 0 00-1.517-.629c-.573 0-1.111.224-1.517.629l-8.71 8.71-2.455-2.454a2.132 2.132 0 00-1.517-.628c-.573 0-1.112.223-1.517.628l-2.382 2.383a2.148 2.148 0 000 3.034l5.769 5.769c.579.58 1.34.869 2.101.869.761 0 1.523-.29 2.102-.87l12.026-12.025a2.148 2.148 0 000-3.034zm-13.89 13.195a.336.336 0 01-.475 0l-5.421-5.421 1.687-1.688 3.04 3.039a1.318 1.318 0 001.864 0l9.296-9.296 1.687 1.688-11.678 11.678z" fill="#FF855E"/></g><defs><clipPath id="clip0"><path fill="#fff" transform="translate(.682)" d="M0 0h90v90H0z"/></clipPath></defs></svg>