<svg width="91" height="90" fill="none" xmlns="http://www.w3.org/2000/svg"><g clip-path="url(#clip0)"><path d="M56.265 20.674h.105s-.081-.205-.105 0zm-25.393 0h.105c-.024-.205-.105 0-.105 0z" fill="#000"/><path d="M81.628 27.149a4.134 4.134 0 00-2.594-1.847l-5.706-1.31 2.635-.738c2.182-.611 3.497-2.942 2.885-5.129-.61-2.183-2.942-3.497-5.129-2.886l-12.283 3.438a4.188 4.188 0 00-1.322-1.45c2.493-4.64 6.084-12.512 6.084-15.899a1.34 1.34 0 00-1.59-1.301c-4.875.984-9.42 1.439-13.89 1.39-4.593-.05-10.31-.621-13.903-1.387-1.11-.237-2.002 1.005-1.416 1.982.876 1.459 1.412 3.001 1.707 4.556-4.509.138-9.185-.408-12.723-2.178-.954-.476-2.079.358-1.904 1.407 1.113 6.677 3.358 10.592 5.61 13.55h-.05a4.166 4.166 0 00-4.162 4.161c0 2.11 1.58 3.858 3.618 4.125-1.486 2.489-3.608 4.85-5.838 7.328-4.741 5.269-10.115 11.241-11.923 20.885-.866 4.614-.837 8.93.086 12.832a23.768 23.768 0 004.873 9.797c3.15 3.796 7.478 6.74 12.863 8.754C32.406 89.042 37.96 90 43.62 90s11.215-.958 16.065-2.771c5.385-2.013 9.713-4.958 12.863-8.754a23.768 23.768 0 004.873-9.797c.922-3.901.952-8.219.086-12.832C75.7 46.202 70.326 40.23 65.585 34.96c-1.61-1.79-3.141-3.495-4.425-5.226l16.01 3.679a4.204 4.204 0 004.44-1.818 4.192 4.192 0 00.018-4.447zM50.69 4.073c4.089.045 8.227-.313 12.599-1.092-.802 3.277-3.376 9.106-5.817 13.546a4.17 4.17 0 00-3.628 2.82h-3.687c-.083-.18-.175-.377-.278-.595-1.14-2.424-3.513-7.467-3.513-11.757 0-.825-.78-1.465-1.589-1.302a46.923 46.923 0 01-5.015.716 17.129 17.129 0 00-.891-3.31c3.568.552 8.063.933 11.819.974zm8.602 16.602v5.666c0 .83-.675 1.505-1.505 1.505-.83 0-1.505-.675-1.505-1.505v-5.666c0-.83.675-1.506 1.505-1.506.83 0 1.505.676 1.505 1.506zM25.574 7.753c3.32 1.133 7.405 1.636 11.816 1.481l2.632-.166a50.05 50.05 0 003.77-.493c.414 4.109 2.291 8.33 3.432 10.772H31.477a1.361 1.361 0 00-.097-.136c-2.221-2.673-4.476-5.764-5.806-11.458zM63.61 36.737c4.508 5.01 9.617 10.687 11.288 19.597 1.538 8.201.06 15.08-4.393 20.444-5.49 6.616-15.54 10.566-26.884 10.566-11.343 0-21.393-3.95-26.884-10.565-4.452-5.365-5.93-12.244-4.393-20.444 1.671-8.91 6.78-14.589 11.288-19.598 2.695-2.995 5.241-5.829 6.873-9.068h3.244a1.328 1.328 0 100-2.656h-5.71c-.83 0-1.506-.675-1.506-1.505 0-.83.675-1.505 1.505-1.505h25.588v3.01H40.079a1.328 1.328 0 100 2.656h13.765a4.168 4.168 0 004.565 2.787c1.482 2.144 3.289 4.156 5.201 6.281zm-1.66-15.445l12.486-3.495a1.52 1.52 0 011.855 1.044 1.52 1.52 0 01-1.043 1.855l-7.136 1.997a1.326 1.326 0 00-.168.061l-5.994-1.377v-.085zm17.62 8.403a1.506 1.506 0 01-1.804 1.13l-15.9-3.653a4.22 4.22 0 00.083-.831V24.1l16.49 3.79a1.52 1.52 0 011.13 1.804z" fill="#73ACDC"/><path d="M35.077 26.341c0 .734-.594 1.328-1.328 1.328h6.33a1.328 1.328 0 110-2.656h-6.33c.733 0 1.328.595 1.328 1.328z" fill="#73ACDC"/><path d="M52.12 54.585a3.457 3.457 0 003.454-3.453v-2.125c0-4.97-3.706-9.088-8.5-9.738v-2.303a3.457 3.457 0 00-3.453-3.453 3.457 3.457 0 00-3.453 3.453v2.478a10.875 10.875 0 00-8.5 10.625c0 6.005 4.886 10.89 10.89 10.89h2.125a3.989 3.989 0 013.984 3.985 3.989 3.989 0 01-3.984 3.984h-3.187a2.925 2.925 0 01-2.922-2.922 3.457 3.457 0 00-3.453-3.453 3.457 3.457 0 00-3.453 3.453c0 4.97 3.706 9.088 8.5 9.738v2.303A3.457 3.457 0 0043.62 81.5a3.457 3.457 0 003.453-3.453V75.57a10.875 10.875 0 008.5-10.625c0-6.005-4.886-10.89-10.89-10.89h-2.126a3.989 3.989 0 01-3.984-3.985 3.989 3.989 0 013.984-3.984h3.188a2.925 2.925 0 012.922 2.922v2.125a3.457 3.457 0 003.453 3.453zm-6.374-11.156h-3.187a6.648 6.648 0 00-6.64 6.64 6.648 6.648 0 006.64 6.64h2.124c4.54 0 8.234 3.694 8.234 8.235a8.221 8.221 0 01-7.318 8.181 1.328 1.328 0 00-1.181 1.32v3.602a.798.798 0 01-1.594 0v-3.541c0-.734-.594-1.328-1.328-1.328-3.954 0-7.171-3.217-7.171-7.172a.798.798 0 011.593 0 5.584 5.584 0 005.578 5.578h3.188a6.648 6.648 0 006.64-6.64 6.648 6.648 0 00-6.64-6.64h-2.125c-4.54 0-8.234-3.694-8.234-8.235a8.221 8.221 0 017.318-8.181 1.328 1.328 0 001.181-1.32v-3.602a.798.798 0 011.594 0v3.541c0 .734.595 1.328 1.328 1.328 3.955 0 7.171 3.218 7.171 7.172v2.125a.798.798 0 01-1.593 0v-2.125a5.584 5.584 0 00-5.578-5.578z" fill="#FF855E"/></g><defs><clipPath id="clip0"><path fill="#fff" transform="translate(.682)" d="M0 0h90v90H0z"/></clipPath></defs></svg>