<svg width="300" height="118" fill="none" xmlns="http://www.w3.org/2000/svg"><path fill-rule="evenodd" clip-rule="evenodd" d="M122.209 39.726c-3.822-5.035-6.137-15.04-2.089-20.726a9.061 9.061 0 013.454-2.934c1.436-.689 3.005-.981 4.594-.981.963 0 1.876.225 2.747.632.934.441 1.773 1.073 2.52 1.778.89.832 1.681 1.78 2.405 2.752a48.907 48.907 0 012.408 3.595 346.386 346.386 0 014.154 6.924c2.392-1.803 4.555-3.88 6.383-6.248-3.713-5.477-8.119-16.583-3.283-22.305 1.063-1.25 2.543-2.044 4.202-2.038 1.662.006 3.155.816 4.22 2.057 4.903 5.693.785 16.695-2.896 22.257 1.847 2.343 4.009 4.4 6.399 6.191a373.139 373.139 0 014.102-6.842c.756-1.225 1.55-2.441 2.412-3.597.73-.968 1.521-1.918 2.408-2.75.743-.707 1.586-1.336 2.517-1.777a6.419 6.419 0 012.747-.632c1.591 0 3.158.292 4.593.98a9.048 9.048 0 013.455 2.934c4.054 5.703 1.748 15.602-2.182 20.613 23.791 6.016 54.492 3.467 78.921 1.625 9.04-.676 18.342-1.505 27.405-1.505 8.702 0 13.018 8.103 14.773 15.526.852 3.581 1.212 7.331 1.202 11.001-.009 3.693-.392 7.436-1.205 11.04-1.436 6.369-5.28 16.024-13.15 16.173h-.194c-5.624 0-11.239-.089-16.863-.184-3.075-.05-6.15-.105-9.228-.108-7.73-.013-18.327-.063-25.868 1.769-2.329.568-5.586 1.543-6.15 4.245-.16.774-.115 1.593-.086 2.378.083 2.067.108 3.921-1.018 5.759-1.694 2.762-5.426 4.315-8.374 5.261-6.957 2.254-15.494 3.153-22.76 3.772-14.697 1.254-29.722 1.457-44.466 1.457-14.725 0-29.731-.203-44.405-1.454-7.244-.616-15.77-1.521-22.716-3.769-2.931-.949-6.657-2.505-8.329-5.26-1.12-1.842-1.081-3.699-.985-5.763.038-.788.08-1.61-.077-2.385-.549-2.705-3.85-3.68-6.176-4.245-7.598-1.828-18.25-1.78-26.037-1.768-3.075.003-6.15.06-9.222.108-5.968.102-11.934.187-17.902.187h-.038c-7.979 0-11.877-9.756-13.325-16.176C.396 73.689.01 69.949 0 66.253c-.01-3.67.354-7.42 1.203-11.001 1.754-7.42 6.074-15.53 14.773-15.526 8.938.003 18.122.835 27.038 1.514 24.493 1.874 55.318 4.455 79.195-1.514zM19.584 69.758c0 3.27-.042 5.033-.087 6.5-.086 2.663-.606 3.229-1.384 3.394a3.27 3.27 0 01-.864.133c-.217 0-.39.127-.39.302 0 .212.214.298.603.298 1.037 0 1.86-.13 2.855-.13 1.602 0 3.589.089 5.104.13 1.512 0 2.721.089 5.576.089 1.43 0 1.733-.089 1.902-.953.13-.727.475-3.438.475-3.743 0-.257 0-.644-.258-.644-.173 0-.303.171-.39.6-.344 1.594-.65 2.454-1.949 2.845-1.081.298-2.462.254-3.285.254-1.471 0-2.508-.083-3.155-.382-.91-.39-1.123-1.206-1.21-2.8-.044-.733 0-4.518 0-5.851v-3.14c0-.175.042-.302.304-.302.692 0 4.195.082 5.19.175 1.64.127 1.901.727 2.073 1.285.087.343.131.775.131 1.032 0 .302.042.562.259.562.175 0 .261-.127.303-.473.044-.559.044-1.419.175-2.625.13-1.248.303-2.064.303-2.28 0-.216-.086-.257-.175-.257-.173 0-.303.085-.476.343-.347.47-.995.596-1.987.647-.91.086-5.318.124-5.84.124-.218 0-.26-.175-.26-.425v-9.773c0-.26.087-.346.214-.346.086 0 4.367.044 4.932.086 2.16.13 2.549.431 2.807 1.292.131.305.262.733.303 1.375 0 .301.087.473.303.473.217 0 .303-.254.303-.642.045-.819.087-1.508.131-2.241.086-1.073.345-1.677.345-1.934 0-.212-.086-.301-.173-.301-.175 0-.216.044-.478.127-.345.133-.823.174-1.688.215-.858.051-8.552.051-8.766.051-2.424-.044-3.588-.13-4.453-.13-.43 0-.65.086-.65.343 0 .13.261.257.56.257.345 0 .782.045 1.04.086 1.255.26 1.554.857 1.644 2.064.086 1.165.086 2.194.086 7.836v6.454h-.003zm31.105-6.451c0-5.687-.041-6.67.045-7.836.086-1.245.214-1.896 1.467-2.064.303-.044.52-.044.779-.086.344-.044.475-.13.475-.301 0-.216-.217-.302-.65-.302-1.21 0-3.72.13-3.89.13-.13 0-2.593-.13-3.936-.13-.475 0-.647.086-.647.302 0 .171.172.257.475.301.261.045.564.045.995.13.91.172 1.168.813 1.257 1.979.086 1.165.086 2.194.086 7.877v6.451c0 3.226 0 6.284-.217 7.833-.13 1.032-.261 1.896-.998 2.06a5.26 5.26 0 01-1.037.134c-.39 0-.561.127-.561.302 0 .212.303.298.692.298 1.209 0 3.76-.13 3.892-.13.217 0 2.72.13 4.928.13.43 0 .606-.13.606-.298 0-.175-.086-.26-.475-.302-.172 0-1.081-.048-1.646-.175-1.123-.26-1.295-.733-1.468-1.978-.216-1.549-.175-4.565-.175-7.874v-3.397c3.417 4 10.333 11.059 12.278 12.433 1.73 1.207 2.594 1.591 5.969 1.591h2.81c.476 0 .693-.082.693-.257 0-.213-.217-.302-.603-.34-.737-.089-.52-.047-.999-.133-1.729-.388-3.196-1.162-6.224-3.915-1.818-1.632-8.82-8.515-11.155-10.928 1.901-1.718 5.66-5.375 8.817-8.214 2.252-2.026 2.814-2.495 3.85-2.842.52-.219 1.43-.387 2.122-.431.344-.045.472-.172.472-.343 0-.172-.086-.258-.69-.258-.56 0-2.937.13-4.239.13-1.384 0-2.68-.13-2.938-.13-.347 0-.433.13-.433.258 0 .174.172.26.475.343.52.174.692.387.692.685 0 .474-.172.69-2.252 2.975-1.946 2.109-6.658 6.582-8.645 8.344v-2.022h.003zm41.008 6.582c.172 0 .261.085.344.212l3.417 8.649c.258.644 0 .86-.172.946-.176.045-.307.175-.307.305 0 .213.262.254 1.082.302 2.896.082 6.14.082 6.574.082.472 0 .648-.082.648-.298 0-.216-.217-.302-.52-.302-.303 0-.909 0-1.468-.219-.606-.213-1.86-.772-3.285-4.169-2.294-5.378-8.173-20.396-8.78-21.818-.475-1.204-.647-1.375-.864-1.375-.303 0-.43.212-.909 1.463l-8.645 22.676c-.733 1.804-1.467 3.226-3.327 3.398-.261.047-.647.047-.864.047-.345 0-.52.127-.52.302 0 .213.217.298.692.298 1.818 0 3.72-.13 4.15-.13.475 0 2.463.13 3.417.13.303 0 .65-.082.65-.298 0-.175-.13-.302-.52-.302h-.303c-.95 0-1.429-.346-1.429-1.124 0-.682.303-1.848.737-3.054l1.901-5.375c.09-.213.22-.34.437-.34h7.864v-.006zm-7.44-1.509h6.917c.175 0 .175-.13.13-.26l-3.413-9.509c-.217-.603-.262-.603-.472 0l-3.248 9.51c-.086.17 0 .26.087.26zm34.784-13.985c1.251 0 2.594.04 4.24.04 4.367.045 4.925.477 5.098 2.198.041.432.041.467.041.603 0 .34.086.515.306.515.128 0 .303-.13.303-.515 0-.346.086-3.188.086-4.39 0-.175-.086-.388-.261-.388-.128 0-.259.044-.82.171-.606.13-1.901.216-3.117.216h-14.179c-.042 0-1.254-.044-2.766-.216-.781-.085-1.601-.473-1.901-.473-.131 0-.262.172-.393.69-.258 1.158-.909 4-.864 4.254 0 .219.045.393.217.393.175 0 .258-.044.389-.349.086-.21.258-.727.651-1.33.6-.902 1.206-1.334 3.978-1.378 1.729-.041 4.016-.041 5.448-.041v15.363c0 3.226 0 6.325-.172 7.874-.172 1.46-.303 1.978-1.126 2.105a6.307 6.307 0 01-.947.048c-.348 0-.482.168-.482.302 0 .212.175.298.651.298 1.126 0 3.674-.13 3.85-.13.175 0 2.724.13 4.928.13.434 0 .565-.13.565-.343 0-.127-.175-.254-.52-.254-.344 0-1.171-.047-1.684-.174-1.082-.26-1.171-.86-1.299-1.896-.175-1.594-.216-4.648-.216-7.96V54.395h-.004zm22.847 15.363c0 3.27-.044 5.033-.086 6.5-.089 2.663-.606 3.229-1.384 3.394a3.287 3.287 0 01-.865.133c-.214 0-.389.127-.389.302 0 .212.22.298.603.298 1.04 0 1.86-.13 2.852-.13 1.601 0 3.588.089 5.107.13 1.509 0 2.721.089 5.576.089 1.426 0 1.729-.089 1.904-.953.131-.727.473-3.438.473-3.743 0-.257 0-.644-.259-.644-.175 0-.303.171-.389.6-.348 1.594-.651 2.454-1.946 2.845-1.078.298-2.459.254-3.282.254-1.474 0-2.511-.083-3.162-.382-.906-.39-1.123-1.206-1.209-2.8-.041-.733 0-4.518 0-5.851v-3.14c0-.175.045-.302.307-.302.692 0 4.191.082 5.186.175 1.643.127 1.902.727 2.074 1.285.083.343.131.775.131 1.032 0 .302.044.562.258.562.172 0 .255-.127.303-.473.045-.559.045-1.419.172-2.625.128-1.248.303-2.064.303-2.28 0-.216-.082-.257-.175-.257-.169 0-.3.085-.469.343-.344.47-.998.596-1.99.647-.906.086-5.318.124-5.838.124-.214 0-.262-.175-.262-.425v-9.773c0-.26.086-.346.22-.346.087 0 4.364.044 4.926.086 2.166.13 2.555.431 2.813 1.292.131.305.256.733.303 1.375 0 .301.083.473.3.473.22 0 .306-.254.306-.642.045-.819.083-1.508.131-2.241.083-1.073.345-1.677.345-1.934 0-.212-.09-.301-.172-.301-.176 0-.221.044-.476.127-.348.133-.823.174-1.684.215-.865.045-8.562.045-8.779.045-2.418-.044-3.589-.13-4.453-.13-.434 0-.645.085-.645.343 0 .13.256.257.559.257.344 0 .781.044 1.04.086 1.256.26 1.556.857 1.646 2.063.086 1.166.086 2.194.086 7.836v6.461h-.01zm27.606 0c0 3.226.045 6.754-.175 8.303-.128 1.032-.389 1.505-1.123 1.635-.351.089-.654.089-.954.089-.258 0-.516.127-.516.254 0 .26.175.343.599.343 1.171 0 3.075-.13 3.768-.13.169 0 2.593.13 4.839.13.437 0 .606-.13.606-.343 0-.127-.172-.254-.561-.254-.345 0-.827-.048-1.257-.089-1.423-.174-1.557-1.035-1.685-2.06-.217-1.55-.217-4.693-.217-8.138v-.6c0-.175.045-.213.217-.213l4.454.041c.264 0 .347.086.52.26.733.906 2.462 3.23 4.153 5.294 2.246 2.882 3.541 4.82 5.359 5.594.951.384 1.905.514 3.937.514h3.021c.602 0 .778-.082.778-.298 0-.175-.128-.302-.475-.302a20.1 20.1 0 01-1.34-.089c-1.209-.174-2.504-.514-4.584-2.622-2.198-2.283-4.795-5.468-7.953-9.335 3.413-2.756 4.584-5.766 4.584-8.134a6.537 6.537 0 00-2.593-5.252c-2.036-1.416-4.671-1.632-7.092-1.632-1.209 0-4.15.13-4.542.13-.083 0-2.725-.13-4.581-.13-.389 0-.52.13-.52.302s.175.257.475.257c.345 0 .779.045 1.037.086 1.34.257 1.643.902 1.729 2.064.086 1.165.086 2.194.086 7.877v6.448h.006zm3.324-15.106v11.71c0 .209.045.428.217.514.565.298 2.291.555 3.851.555.899 0 1.984-.041 2.893-.641 1.295-.82 2.16-2.712 2.16-5.464 0-4.69-2.505-7.274-6.355-7.274-1.081 0-1.984.085-2.504.216a.387.387 0 00-.262.384zm29.728 15.106c0 3.226 0 6.284-.217 7.833-.127 1.032-.258 1.896-.995 2.06-.345.086-.82.134-1.037.134-.392 0-.565.127-.565.302 0 .212.3.298.693.298 1.209 0 3.761-.13 3.891-.13.217 0 2.725.13 4.932.13.434 0 .603-.13.603-.298 0-.175-.083-.26-.472-.302-.175 0-1.085-.048-1.649-.175-1.12-.26-1.292-.733-1.468-1.978-.217-1.549-.175-4.565-.175-7.874v-6.451c0-5.687-.045-6.67.048-7.836.083-1.245.214-1.896 1.467-2.064.303-.044.517-.044.779-.086.344-.044.475-.13.475-.301 0-.216-.217-.302-.645-.302-1.212 0-3.722.13-3.898.13-.131 0-2.593-.13-3.93-.13-.478 0-.651.086-.651.302 0 .171.173.257.476.301.258.045.564.045.992.13.909.172 1.171.813 1.26 1.979.086 1.165.086 2.194.086 7.877v6.451zm20.821 5.249c0 3.137-.214 4.302-1.167 4.603-.565.175-1.037.175-1.34.175-.434 0-.603.127-.603.302 0 .257.258.298.647.298 1.86 0 3.458-.13 3.768-.13.303 0 1.86.13 4.188.13.472 0 .693-.082.693-.298 0-.175-.176-.302-.524-.302-.341 0-1.071 0-1.764-.175-1.081-.26-1.336-1.377-1.426-4.346l-.561-16.824c1.081 1.12 5.394 5.594 9.886 10.242 3.758 3.658 9.761 9.592 9.933 9.68 2.112 1.982 2.556 2.284 2.855 2.284.307 0 .39-.216.39-2.37l.089-21.599c0-2.58.303-3.01 1.295-3.225.472-.086.823-.086 1.085-.13.258-.045.383-.172.383-.344 0-.215-.125-.257-.603-.257-1.682 0-3.025.13-3.465.13-.392 0-2.201-.13-4.057-.13-.431 0-.776.042-.776.258 0 .174.087.342.517.342.303 0 .944.045 1.681.175 1.165.302 1.423 1.073 1.468 3.397l.472 17.898c-1.123-1.032-5.436-5.468-8.801-8.735-6.049-6.153-12.049-12.261-12.438-12.693-.303-.302-1.043-1.162-1.343-1.162-.351 0-.479.428-.479 1.762.039 7.143-.003.517-.003 21.044zm52.24-5.118c.175 0 .258.085.347.212l3.41 8.649c.262.644 0 .86-.172.946-.172.045-.303.175-.303.305 0 .213.255.254 1.078.302 2.897.082 6.144.082 6.575.082.475 0 .651-.082.651-.298 0-.216-.224-.302-.52-.302-.303 0-.906 0-1.471-.219-.606-.213-1.856-.772-3.286-4.169-2.29-5.378-8.172-20.396-8.778-21.818-.476-1.204-.645-1.375-.865-1.375-.303 0-.431.212-.906 1.463l-8.645 22.676c-.737 1.804-1.47 3.226-3.33 3.398-.259.047-.651.047-.865.047-.341 0-.516.127-.516.302 0 .213.213.298.692.298 1.812 0 3.713-.13 4.147-.13.478 0 2.466.13 3.416.13.307 0 .651-.082.651-.298 0-.175-.134-.302-.52-.302h-.3c-.954 0-1.429-.346-1.429-1.124 0-.682.303-1.848.737-3.054l1.898-5.375c.086-.213.214-.34.434-.34h7.87v-.006zm-7.436-1.509h6.919c.175 0 .175-.13.127-.26l-3.413-9.509c-.217-.603-.258-.603-.475 0l-3.241 9.51c-.093.17 0 .26.083.26zM98.954 96.828v4.239h-5.959v-4.239c0-.523-.427 0-.947 0-.53 0-.954-.523-.954 0v10.38c0 .523.424 0 .954 0 .523 0 .947.523.947 0v-4.245h5.959v4.245c0 .523.427 0 .95 0 .53 0 .954.523.954 0v-10.38c0-.523-.424 0-.953 0-.524 0-.951-.523-.951 0zm47.458 1.896v8.484c0 .523.427 0 .953 0 .527 0 .951.523.951 0v-8.484h3.793c.526 0 0-.425 0-.946 0-.524.526-.95 0-.95h-9.382c-.529 0 0 .426 0 .95 0 .52-.529.946 0 .946h3.685zm-24.739-.159c-.95 0-1.809.381-2.427 1.007a3.48 3.48 0 00-.007 4.89 3.425 3.425 0 002.431 1.006 3.437 3.437 0 003.429-3.452c0-.955-.383-1.825-1.005-2.444a3.375 3.375 0 00-2.421-1.007zm-3.841-.39a5.435 5.435 0 00-1.595 3.841c0 1.502.61 2.855 1.592 3.845a5.43 5.43 0 003.844 1.601 5.448 5.448 0 005.43-5.446 5.44 5.44 0 00-1.589-3.841 5.389 5.389 0 00-3.841-1.604 5.41 5.41 0 00-3.841 1.604zm80.784-1.096v9.887c0 .181.054.232.143.229a.385.385 0 00.106.009h9.589c.526 0 0-.425 0-.949s.526-.949 0-.949h-7.93v-8.23c0-.524-.431 0-.957 0-.527 0-.951-.52-.951.003zm-28.79 0v9.887c0 .181.051.232.147.229a.382.382 0 00.108.009h9.586c.523 0 0-.425 0-.949s.523-.949 0-.949h-7.933v-2.766h4.156c.53 0 0-.425 0-.943 0-.524.53-.955 0-.955h-4.156v-1.921h7.933c.523 0 0-.426 0-.946 0-.524.523-.95 0-.95h-9.586a.55.55 0 00-.162.022h-.003l-.004.004-.009.003h-.003l-.007.006-.003.003-.006.007-.01.003-.006.013-.004.003v.003l-.006.006v.004l-.006.009-.003.006v.004a.585.585 0 00-.023.158zm5.832-55.508c-10.901 9.909-40.858 10.265-51.682.127-24.199 6.591-56.048 3.934-81.029 2.029-8.89-.68-18.058-1.512-26.975-1.512-7.974.003-11.936 7.312-13.55 14.142-.763 3.22-1.088 6.591-1.082 9.896.01 3.347.36 6.728 1.097 9.989 1.311 5.81 4.859 14.75 12.094 14.75h.028c5.972 0 11.93-.079 17.896-.177 3.079-.054 6.157-.105 9.232-.111 7.863-.013 18.738.016 26.362 2.086 2.97.81 6.352 2.159 7.117 5.467.268 1.16.208 2.381.153 3.563-.08 1.708-.118 3.209.913 4.679 1.617 2.315 5.368 3.607 7.952 4.338 6.932 1.965 15.2 2.711 22.362 3.241 14.527 1.089 29.307 1.261 43.872 1.261 14.585 0 29.39-.175 43.939-1.267 7.178-.534 15.465-1.283 22.41-3.248 2.597-.737 6.358-2.039 7.991-4.356 1.034-1.47 1.008-2.975.941-4.69-.051-1.168-.096-2.384.166-3.53.772-3.302 4.125-4.648 7.088-5.461 7.573-2.067 18.384-2.096 26.196-2.083 3.079.006 6.157.06 9.235.111 5.615.089 11.213.178 16.815.178l.054-.003c7.241 0 10.789-8.938 12.097-14.751.73-3.258 1.081-6.646 1.091-9.989.009-3.305-.319-6.67-1.079-9.897-1.614-6.829-5.576-14.135-13.554-14.135-9.047 0-18.317.816-27.341 1.493-12.467.936-26.634 2.063-40.705 2.127-14.074.06-28.04-.943-40.104-4.267zM212.32 92.72l.373.14c.272-3.182-4.58-3.772-8.906-4.302-4.903-.597-9.873-.95-14.802-1.236-13.149-.749-26.413-.98-39.581-.98-13.169 0-26.429.228-39.575.98-4.929.286-9.902.635-14.805 1.236-4.498.552-9.009 1.133-8.907 4.302l.367-.14c2.444-.94 6.096-1.381 8.696-1.699 4.881-.59 9.832-.94 14.738-1.216 13.117-.752 26.349-.98 39.486-.98 13.143 0 26.368.225 39.489.98 4.903.277 9.854.626 14.734 1.216 2.607.321 6.256.762 8.693 1.699zm-53.471-61.017c4.986 3.41 10.738 5.721 16.537 7.347 3.994-3.896 7.101-12.9 3.43-18.063a7.79 7.79 0 00-3.002-2.53c-1.308-.629-2.747-.89-4.198-.89a5.5 5.5 0 00-2.358.54c-.829.388-1.575.956-2.245 1.582-.823.774-1.56 1.666-2.243 2.575a45.85 45.85 0 00-2.325 3.47 360.322 360.322 0 00-3.596 5.969zm-16.798 1.908c-2.345 1.664-4.868 3.09-7.497 4.299a64.847 64.847 0 01-8.096 3.067c11.36 7.62 35.31 7.347 46.695-.143-5.419-1.692-10.74-4.02-15.385-7.306-6.051 10.211-9.605 10.367-15.717.083zm-17.765 5.572c5.85-1.622 11.675-3.946 16.696-7.394a297.534 297.534 0 00-3.64-6.052c-.733-1.187-1.496-2.356-2.331-3.47-.674-.908-1.414-1.8-2.24-2.575-.663-.626-1.413-1.19-2.246-1.581a5.47 5.47 0 00-2.357-.54c-1.448 0-2.89.26-4.201.889a7.835 7.835 0 00-3.002 2.53c-3.643 5.134-.565 14.282 3.321 18.193zm19.178-6.62c4.957 8.296 7.985 8.157 12.897-.076-2.418-1.867-4.593-4.004-6.447-6.42-1.847 2.448-4.026 4.607-6.45 6.496zm6.444-9.598c2.951-4.35 7.228-14.02 3.257-18.637-.877-1.02-2.099-1.673-3.461-1.676-1.353-.004-2.559.635-3.423 1.654-3.895 4.6.689 14.42 3.627 18.66z" fill="#4B4B4B"/></svg>