<svg xmlns="http://www.w3.org/2000/svg" width="44" height="40" viewBox="0 0 44 40"><g><g><path fill="#4a657d" d="M44 34.074C44 37.34 41.368 40 38.133 40c-3.234 0-5.866-2.659-5.866-5.926 0-3.016 2.244-5.508 5.133-5.875V20.74H22.733V28.2c2.89.367 5.134 2.859 5.134 5.875C27.867 37.34 25.235 40 22 40s-5.867-2.659-5.867-5.926c0-3.016 2.244-5.508 5.134-5.875V20.74H6.6V28.2c2.89.367 5.133 2.859 5.133 5.875C11.733 37.34 9.101 40 5.867 40 2.632 40 0 37.341 0 34.074c0-3.016 2.244-5.508 5.133-5.875v-8.94h16.134v-7.458c-2.89-.367-5.134-2.859-5.134-5.875C16.133 2.658 18.765 0 22 0s5.867 2.658 5.867 5.926c0 3.016-2.244 5.508-5.134 5.875v7.458h16.134v8.94c2.889.367 5.133 2.859 5.133 5.875zM22 10.37c2.427 0 4.4-1.993 4.4-4.444 0-2.451-1.973-4.445-4.4-4.445-2.427 0-4.4 1.993-4.4 4.445 0 2.45 1.973 4.444 4.4 4.444zM5.867 29.63c-2.427 0-4.4 1.993-4.4 4.444 0 2.45 1.973 4.444 4.4 4.444 2.426 0 4.4-1.993 4.4-4.444 0-2.451-1.974-4.445-4.4-4.445zm16.133 0c-2.427 0-4.4 1.993-4.4 4.444 0 2.45 1.973 4.444 4.4 4.444 2.427 0 4.4-1.993 4.4-4.444 0-2.451-1.973-4.445-4.4-4.445zm20.533 4.444c0-2.451-1.973-4.445-4.4-4.445-2.426 0-4.4 1.994-4.4 4.445 0 2.45 1.974 4.444 4.4 4.444 2.427 0 4.4-1.993 4.4-4.444z"/></g></g></svg>