<svg xmlns="http://www.w3.org/2000/svg" width="40" height="40" viewBox="0 0 40 40"><g><g><path fill="#4a657d" d="M33.59 21.759c0 1.07-.854 1.942-1.903 1.942-1.05 0-1.904-.871-1.904-1.942 0-.328.261-.594.583-.594.321 0 .582.266.582.594 0 .416.331.754.739.754.407 0 .739-.338.739-.754 0-.328.26-.594.582-.594.322 0 .582.266.582.594zm6.41 1.64v2.771c0 .98-.614 1.838-1.528 2.137l-2.64.863a.64.64 0 0 0-.353.297c-1.133 1.997-2.886 3.646-5.212 4.9l-.823 4.448a1.435 1.435 0 0 1-1.4 1.185h-2.75a1.435 1.435 0 0 1-1.4-1.185l-.425-2.286a25.075 25.075 0 0 1-3.567.254c-.874 0-1.74-.046-2.575-.137l-.402 2.17A1.435 1.435 0 0 1 15.524 40h-2.75a1.435 1.435 0 0 1-1.4-1.185l-.791-4.194C8.665 33.556 7.16 32.139 6.11 30.41c-1.14-1.877-1.718-4.082-1.718-6.556 0-.332.011-.658.03-.98-.1-.01-.206-.02-.316-.033-.109.243-.25.478-.425.7-1.103 1.412-2.25 1.681-2.966 1.681-.045 0-.09 0-.131-.003a.616.616 0 0 1-.584-.62v-.003c0-.338.265-.61.596-.62.565-.02 1.436-.23 2.175-1.175.041-.053.079-.106.113-.158-1.25-.275-2.004-.71-2.297-1.327-.174-.365-.264-.958.291-1.707.383-.516.935-.767 1.515-.689.736.1 1.43.72 1.768 1.576.153.388.223.788.213 1.185l.168.016c.527-3.676 2.444-6.57 5.622-8.446a.576.576 0 0 1 .796.217.6.6 0 0 1-.213.812c-1.639.967-2.912 2.235-3.783 3.769-.934 1.643-1.408 3.596-1.408 5.805 0 4.372 1.963 7.752 5.678 9.776a.93.93 0 0 1 .47.648l.814 4.315c.023.127.131.219.257.219h2.749a.263.263 0 0 0 .257-.217l.445-2.4a.925.925 0 0 1 1.009-.754c.86.102 1.758.154 2.668.154 1.222 0 2.442-.093 3.626-.275a.916.916 0 0 1 1.04.75l.468 2.525a.263.263 0 0 0 .257.217h2.75a.263.263 0 0 0 .256-.217l.846-4.569a.93.93 0 0 1 .478-.656c2.18-1.155 3.81-2.67 4.847-4.498.227-.4.584-.696 1.006-.834l2.64-.863c.43-.14.719-.544.719-1.005v-2.772c0-.46-.289-.864-.719-1.005l-1.638-.535a1.87 1.87 0 0 1-1.198-1.232 9.67 9.67 0 0 0-1.855-3.397c-.363 1.001-.822 1.667-1.369 1.984-.484.28-1.142.438-1.857.438-.949 0-1.997-.28-2.865-.928-.736-.55-1.256-1.295-1.544-2.214-.32-1.023-.338-2.24-.054-3.614l.018-.078a21.822 21.822 0 0 0-1.1-.248 7.98 7.98 0 0 1-2.417 2.41v.001c.362.096.721.204 1.076.325a.597.597 0 0 1-.184 1.157.57.57 0 0 1-.185-.03 15.327 15.327 0 0 0-9.846 0 .58.58 0 0 1-.737-.376.597.597 0 0 1 .368-.751 16.16 16.16 0 0 1 1.076-.325 8.139 8.139 0 0 1-3.73-6.873c0-2.165.827-4.201 2.328-5.733A7.814 7.814 0 0 1 18.022 0c2.122 0 4.118.843 5.618 2.374a8.1 8.1 0 0 1 1.481 2.088.6.6 0 0 1-.258.797.576.576 0 0 1-.782-.263 6.91 6.91 0 0 0-1.264-1.781 6.669 6.669 0 0 0-4.795-2.027c-1.811 0-3.514.72-4.795 2.027a6.945 6.945 0 0 0-1.986 4.892c0 1.849.705 3.586 1.986 4.893a6.726 6.726 0 0 0 2.452 1.599 16.535 16.535 0 0 1 4.686 0A6.726 6.726 0 0 0 22.817 13a6.967 6.967 0 0 0 1.98-4.58.586.586 0 0 1 .607-.568.59.59 0 0 1 .555.62 8.224 8.224 0 0 1-.712 3.008l.131.028c.36.08.718.168 1.068.265.107-.081.222-.152.344-.21 5.193-2.425 6.153-1.912 6.468-1.744.585.313.882 1.2.906 2.714a15.02 15.02 0 0 1-.356 3.364c.378.396.724.811 1.035 1.246a10.865 10.865 0 0 1 1.548 3.126.692.692 0 0 0 .443.457l1.638.536A2.232 2.232 0 0 1 40 23.398zm-7.295-12.533a.595.595 0 0 0-.211-.029c-.624 0-2.305.445-5.219 1.807a.714.714 0 0 0-.4.496c-.44 2.136-.044 3.735 1.147 4.624 1.19.888 2.775.811 3.461.415.604-.349 1.205-2.022 1.43-3.977.226-1.973-.02-3.132-.208-3.336zM3.202 21.5a1.838 1.838 0 0 0-.122-.56c-.198-.504-.573-.804-.84-.84a.42.42 0 0 0-.06-.005c-.099 0-.23.04-.374.232-.09.121-.232.344-.172.471.136.286.762.532 1.568.702zM20.455 9.647c0 1.288-.76 2-1.868 2.157v.356c0 .125-.154.24-.308.24-.174 0-.297-.115-.297-.24v-.325c-1.273-.02-2.135-.722-2.135-1.236 0-.251.216-.596.472-.596.339 0 .616.733 1.663.816V8.36c-.924-.335-1.95-.712-1.95-2.053 0-1.32.975-1.843 1.95-1.947v-.304c0-.126.123-.241.297-.241.154 0 .308.115.308.24v.284c.698.02 1.683.24 1.683.753 0 .2-.143.597-.451.597-.247 0-.513-.335-1.232-.387v2.126c.893.335 1.868.796 1.868 2.22zm-2.412-4.325c-.574.073-.985.335-.985.88 0 .596.441.816.985 1.026zm1.386 4.44c0-.66-.4-.953-.903-1.173v2.21c.554-.105.903-.44.903-1.037z"/></g></g></svg>