<svg width="90" height="90" fill="none" xmlns="http://www.w3.org/2000/svg"><path d="M31.73 41.388h23.282a1.317 1.317 0 100-2.635H31.73a1.317 1.317 0 100 2.635zm24.6 5.244c0-.728-.59-1.317-1.318-1.317H31.73a1.317 1.317 0 100 2.634h23.282c.727 0 1.317-.59 1.317-1.317zm-5.82 6.561c0-.727-.59-1.317-1.318-1.317H37.55a1.318 1.318 0 000 2.635h11.64c.728 0 1.318-.59 1.318-1.318z" fill="#73ACDC"/><path d="M88.496 33.459a1.318 1.318 0 00-2.547.676 42.495 42.495 0 011.399 9.604H69.61a24.548 24.548 0 00-7.343-16.289 24.549 24.549 0 00-15.893-7.051V2.66a42.426 42.426 0 0137.521 25.557l.14.326a1.318 1.318 0 002.423-1.035l-.141-.331A45.065 45.065 0 0045.109.003C45.09.002 45.074 0 45.056 0 33.041 0 21.74 4.674 13.234 13.16 4.745 21.63.047 32.893.002 44.88a1.39 1.39 0 00-.002.067v.06c0 .013.002.025.003.037l-.001.015C.03 56.975 4.666 68.2 13.055 76.663 21.438 85.122 32.608 89.858 44.508 90h.023c.487 0 .946-.189 1.294-.532.354-.35.549-.817.549-1.314v-2.038c10.474-.341 20.272-4.579 27.718-12.025 7.445-7.445 11.682-17.243 12.023-27.717h2.039c.497 0 .964-.195 1.314-.55.349-.352.538-.82.532-1.316a45.167 45.167 0 00-1.504-11.05zm-73.4-18.434C22.791 7.346 32.92 2.983 43.738 2.655v17.739c-12.543.664-22.65 10.75-23.342 23.29H2.658C3 32.85 7.388 22.715 15.095 15.025zm29.468 51.98a22.048 22.048 0 01-16.532-8.023A1.317 1.317 0 1026 60.658a24.682 24.682 0 0017.739 8.95v17.739c-10.904-.332-21.108-4.766-28.812-12.54C7.339 67.152 3.013 57.099 2.66 46.373H20.4a24.45 24.45 0 002.198 8.861 1.317 1.317 0 102.395-1.099 21.885 21.885 0 01-1.998-9.085v-.046c.028-12.136 9.925-22.01 22.062-22.01a21.944 21.944 0 0115.364 6.334 21.938 21.938 0 016.584 15.235 1.835 1.835 0 001.844 1.81h3.392c-.334 6.77-3.125 13.088-7.952 17.915s-11.144 7.621-17.914 7.955v-3.395a1.836 1.836 0 00-1.81-1.844zm27.664 5.224c-6.948 6.948-16.084 10.91-25.854 11.25v-8.6c7.474-.334 14.453-3.403 19.777-8.728 5.325-5.324 8.392-12.303 8.727-19.777h8.601c-.34 9.77-4.302 18.906-11.25 25.854z" fill="#FF855E"/><path fill-rule="evenodd" clip-rule="evenodd" d="M88.496 33.459a1.318 1.318 0 00-2.547.676 42.495 42.495 0 011.399 9.604H69.61a24.548 24.548 0 00-7.343-16.289 24.549 24.549 0 00-15.893-7.051V2.66a42.426 42.426 0 0137.521 25.557l.14.326a1.318 1.318 0 002.423-1.035l-.141-.331A45.065 45.065 0 0045.109.003C45.09.002 45.074 0 45.056 0 33.041 0 21.74 4.674 13.234 13.16 4.745 21.63.047 32.893.002 44.88a1.39 1.39 0 00-.002.067v.06c0 .013.002.025.003.037l-.001.015C.03 56.975 4.666 68.2 13.055 76.663 21.438 85.122 32.608 89.858 44.508 90h.023c.487 0 .946-.189 1.294-.532.354-.35.549-.817.549-1.314V68.848a1.836 1.836 0 00-1.81-1.844 22.048 22.048 0 01-16.556-8.051A1.317 1.317 0 0026 60.659a24.682 24.682 0 0017.739 8.95v17.739c-10.904-.332-21.108-4.766-28.812-12.54C7.339 67.152 3.013 57.099 2.66 46.373H20.4a24.45 24.45 0 002.198 8.861A1.317 1.317 0 0025 54.15l-.007-.014a21.885 21.885 0 01-1.998-9.086v-.046c.028-12.136 9.925-22.01 22.062-22.01a21.944 21.944 0 0115.364 6.334 21.938 21.938 0 016.584 15.235 1.835 1.835 0 001.844 1.81h19.306c.497 0 .964-.194 1.314-.548.349-.353.538-.82.532-1.317a45.167 45.167 0 00-1.504-11.05zM43.74 2.655c-10.82.328-20.947 4.691-28.644 12.37C7.388 22.715 3 32.85 2.658 43.685h17.74c.69-12.542 10.798-22.627 23.34-23.291V2.655z" fill="#73ACDC"/><path d="M86.885 32.524a1.318 1.318 0 011.559.778c-.155-.463-.62-1.853-.944-2.802-.328-.958-.817-2.352-.984-2.826a1.318 1.318 0 01-2.481.87S84.658 30.028 85 31c.425 1.207.95 3.135.95 3.135a1.318 1.318 0 01.934-1.611zm-60.708 26.28a1.317 1.317 0 011.83.149c-.154-.184-1.019-1.212-1.507-1.953-.659-1-1.423-2.677-1.501-2.85a1.318 1.318 0 01-2.402 1.084S23.363 56.97 24 58c.684 1.105 2 2.659 2 2.659a1.317 1.317 0 01.177-1.855z" fill="#73ACDC"/></svg>