<svg width="90" height="90" fill="none" xmlns="http://www.w3.org/2000/svg"><path d="M81.516 16.144a5.42 5.42 0 00-3.745 1.499 5.437 5.437 0 00-7.679 6.622c4.666 13.148 4.407 12.365 4.424 12.574l-1.386 1.593a5.815 5.815 0 00-1.687-2.69 5.828 5.828 0 00-8.141.265l-12.885 13.32a9.353 9.353 0 00-2.642 6.532v11.202h-.942a3.16 3.16 0 00-1.86.607 3.162 3.162 0 00-1.862-.607h-.941V55.86c0-2.45-.938-4.771-2.643-6.532l-12.884-13.32a5.829 5.829 0 00-8.142-.265 5.817 5.817 0 00-1.687 2.69l-1.386-1.592c.008-.093.027-.184.058-.271l4.366-12.304c1.665-4.694-3.339-8.933-7.68-6.622-3.448-3.278-9.184-.831-9.184 3.942v12.491c0 3.098 1.021 6.171 2.864 8.64l9.705 13.351a24.193 24.193 0 014.406 10.994h-.425a3.183 3.183 0 00-3.179 3.18v16.58A3.183 3.183 0 0019.54 90h23.573c.695 0 1.337-.227 1.86-.607a3.16 3.16 0 001.861.607h23.574a3.183 3.183 0 003.179-3.18v-1.745a1.318 1.318 0 10-2.637 0v1.746a.544.544 0 01-.542.542H46.833a.544.544 0 01-.543-.542V76.634h24.658v2.288a1.32 1.32 0 102.638 0v-8.68a3.183 3.183 0 00-3.18-3.18h-.425a24.192 24.192 0 014.407-10.995l9.694-13.338a14.562 14.562 0 002.874-8.653V21.585a5.446 5.446 0 00-5.44-5.441zm-64.15 7.239l-3.497 9.856V21.584c0-.582-.096-1.164-.273-1.705 2.218-.978 4.598 1.171 3.77 3.504zm.323 31.134L7.975 41.15a11.903 11.903 0 01-2.35-7.075V21.584a2.807 2.807 0 012.804-2.804 2.808 2.808 0 012.803 2.804v13.055c0 .93.356 1.804.916 2.449 8.877 10.201 3.354 4.115 13.462 15.045a1.318 1.318 0 101.936-1.79c-7.33-7.926-5.784-6.224-7.893-8.648a3.218 3.218 0 01.62-4 3.204 3.204 0 014.474.145l12.885 13.32a6.724 6.724 0 011.9 4.7v11.2H22.625a26.827 26.827 0 00-4.935-12.544zM43.654 86.82c0 .3-.244.543-.543.543H19.539a.543.543 0 01-.543-.543V76.634h24.658V86.82zm0-12.822H18.995V70.24c0-.298.243-.542.543-.542H43.11c.3 0 .543.244.543.542v3.758zm28.924-50.615a2.802 2.802 0 013.77-3.503 5.502 5.502 0 00-.273 1.705v11.654l-3.497-9.856zm-2.172 46.315c.3 0 .542.244.542.542v3.758H46.29V70.24c0-.298.244-.542.543-.542h23.573zm13.913-35.622a11.92 11.92 0 01-2.36 7.09l-9.704 13.35a26.823 26.823 0 00-4.935 12.545H50.411V55.86a6.73 6.73 0 011.901-4.7l12.885-13.32a3.202 3.202 0 014.474-.145 3.216 3.216 0 01.62 4c-2.11 2.426-.563.721-7.893 8.648a1.319 1.319 0 001.937 1.79c10.235-11.07 5.044-5.372 13.201-14.747.3-.344 1.176-1.214 1.176-2.747V21.584a2.808 2.808 0 012.804-2.804 2.807 2.807 0 012.803 2.804v12.492z" fill="#73ACDC"/><path d="M72.267 83.757c.729 0 1.319.59 1.319 1.318v-6.153a1.319 1.319 0 11-2.638 0l.001 6.153c0-.728.59-1.318 1.318-1.318z" fill="#73ACDC"/><path d="M47.907 29.768a1.318 1.318 0 100 2.637h16.948A2.308 2.308 0 0067.16 30.1v-6.56c0-3.36-1.917-6.28-4.713-7.73a5.608 5.608 0 001.634-3.96 5.63 5.63 0 00-5.624-5.623 5.63 5.63 0 00-5.623 5.624c0 1.543.624 2.941 1.633 3.959-.126.065-.25.133-.374.205a10.549 10.549 0 00-4.72-4.354 6.649 6.649 0 002.263-4.998A6.67 6.67 0 0044.972 0a6.67 6.67 0 00-6.663 6.663c0 1.99.877 3.776 2.263 4.998a10.553 10.553 0 00-4.721 4.354 7.909 7.909 0 00-.374-.205 5.606 5.606 0 001.634-3.96 5.63 5.63 0 00-5.624-5.623 5.63 5.63 0 00-5.624 5.624c0 1.543.625 2.942 1.635 3.96-2.796 1.448-4.713 4.369-4.713 7.73V30.1a2.308 2.308 0 002.305 2.305h16.664a1.319 1.319 0 000-2.637h-4.63v-8.594c0-4.303 3.498-7.848 7.848-7.848 4.335 0 7.848 3.53 7.848 7.848v8.594h-4.913zm10.55-20.904a2.99 2.99 0 012.988 2.987 2.991 2.991 0 01-2.988 2.987 2.99 2.99 0 01-2.987-2.987 2.99 2.99 0 012.987-2.987zm6.066 14.676v6.228h-9.066v-8.593c0-.937-.129-1.864-.349-2.69 4.026-2.672 9.415.237 9.415 5.055zM31.487 8.864a2.99 2.99 0 012.987 2.987 2.99 2.99 0 01-2.987 2.987 2.99 2.99 0 01-2.987-2.987 2.99 2.99 0 012.987-2.987zm3 12.31v8.594h-9.065V23.54c0-4.817 5.388-7.727 9.415-5.055-.219.82-.35 1.753-.35 2.69zM44.973 10.69a4.031 4.031 0 01-4.026-4.026 4.032 4.032 0 014.026-4.027 4.03 4.03 0 014.026 4.026 4.031 4.031 0 01-4.026 4.027z" fill="#FF855E"/><path d="M46.588 31.087c0-.729.59-1.319 1.319-1.319h-6.153a1.318 1.318 0 110 2.637h6.153c-.728 0-1.319-.59-1.319-1.319z" fill="#FF855E"/></svg>