<svg width="90" height="90" fill="none" xmlns="http://www.w3.org/2000/svg"><g clip-path="url(#clip0)"><path d="M59.88 22.63v-1.918a2.624 2.624 0 00-2.046-2.561 10.41 10.41 0 00-1.486-.234c-3.522-.29-6.521 1.098-9.422 2.442-2.72 1.26-5.29 2.45-8.137 2.206-1.925-.164-4.06-.717-6.177-1.597a1.798 1.798 0 00-2.492 1.661c0 8.205 6.675 14.88 14.88 14.88 8.205 0 14.88-6.675 14.88-14.88zM45 34.872c-6.33 0-11.554-4.83-12.18-10.997 1.964.71 3.928 1.16 5.745 1.316 3.545.303 6.557-1.092 9.47-2.441 2.708-1.255 5.267-2.441 8.096-2.206.368.03.74.089 1.113.167v1.917c0 6.751-5.493 12.244-12.244 12.244z" fill="#FF855E"/><path d="M51.564 41.934a20.38 20.38 0 0013.822-19.305V9.85a6.404 6.404 0 006.058-6.387v-.305A3.162 3.162 0 0068.286 0H28.847a1.318 1.318 0 000 2.637h39.439c.287 0 .521.234.521.521v.305a3.764 3.764 0 01-3.76 3.76H24.954a3.764 3.764 0 01-3.76-3.76v-.305c0-.287.234-.521.522-.521h1.859a1.318 1.318 0 000-2.637h-1.86a3.162 3.162 0 00-3.158 3.158v.305a6.404 6.404 0 006.058 6.387v12.78a20.38 20.38 0 0013.822 19.304A3.241 3.241 0 0140.64 45a3.24 3.24 0 01-2.203 3.066 20.38 20.38 0 00-13.822 19.305V80.15a6.404 6.404 0 00-6.058 6.387v.304A3.162 3.162 0 0021.715 90h19.448a1.318 1.318 0 100-2.637H21.715a.522.522 0 01-.522-.522v-.304a3.764 3.764 0 013.76-3.76h40.095a3.764 3.764 0 013.76 3.76v.305a.523.523 0 01-.523.521H46.438a1.318 1.318 0 000 2.637h21.849a3.162 3.162 0 003.158-3.158v-.305a6.404 6.404 0 00-6.058-6.387V67.37a20.38 20.38 0 00-13.822-19.304A3.241 3.241 0 0149.361 45a3.24 3.24 0 012.203-3.066zM45 69.808a12.21 12.21 0 018.246 3.194 12.212 12.212 0 013.846 7.139H32.909a12.204 12.204 0 013.796-7.094A12.204 12.204 0 0145 69.808zm5.716-19.245a17.743 17.743 0 0112.033 16.808v12.77h-2.995a14.84 14.84 0 00-4.732-9.087 14.832 14.832 0 00-8.703-3.823V63.25a1.318 1.318 0 00-2.637 0v3.982a14.824 14.824 0 00-8.764 3.877 14.834 14.834 0 00-4.673 9.033H27.25v-12.77a17.743 17.743 0 0112.034-16.808A5.877 5.877 0 0043.275 45a5.877 5.877 0 00-3.99-5.563A17.743 17.743 0 0127.25 22.63V9.86h35.498v12.77a17.744 17.744 0 01-12.033 16.808A5.877 5.877 0 0046.724 45a5.876 5.876 0 003.992 5.563z" fill="#73ACDC"/><path d="M27.53 1.318C27.53.59 28.12 0 28.846 0h-5.273a1.318 1.318 0 010 2.637h5.273c-.728 0-1.318-.59-1.318-1.319zm14.951 87.363c0 .729-.59 1.319-1.318 1.319h5.274a1.318 1.318 0 010-2.637h-5.274c.728 0 1.318.59 1.318 1.319z" fill="#73ACDC"/><path d="M45 52.192c-.728 0-1.318.59-1.318 1.318v3.357a1.318 1.318 0 002.636 0V53.51c0-.728-.59-1.318-1.318-1.318z" fill="#FF855E"/></g><defs><clipPath id="clip0"><path fill="#fff" d="M0 0h90v90H0z"/></clipPath></defs></svg>