<svg width="90" height="90" fill="none" xmlns="http://www.w3.org/2000/svg"><g clip-path="url(#clip0)"><path d="M77.53 22.344h-.691c-.488 0-.935.27-1.164.7L73.64 26.87l-1.968-3.813a1.319 1.319 0 00-1.171-.714h-8.176a1.318 1.318 0 000 2.637h7.372l1.763 3.415a2.444 2.444 0 002.162 1.327h.016c.908 0 1.736-.497 2.163-1.3l1.83-3.442C84.461 24.926 90 19.354 90 12.51a12.44 12.44 0 00-1.87-6.567 1.32 1.32 0 00-2.24 1.39 9.806 9.806 0 011.473 5.178c0 5.421-4.41 9.832-9.832 9.832zM12.369 24.98l1.83 3.443a2.444 2.444 0 002.164 1.3h.015a2.444 2.444 0 002.163-1.327l1.762-3.415h6.302a1.318 1.318 0 100-2.637H19.5c-.494 0-.946.276-1.172.714l-1.968 3.813-2.035-3.827c-.228-.43-.676-.7-1.164-.7h-.692c-5.421 0-9.832-4.41-9.832-9.833 0-5.421 4.41-9.832 9.832-9.832h65.062a9.842 9.842 0 014.745 1.22 1.318 1.318 0 001.25-2.322A12.486 12.486 0 0077.531.042H12.469C5.594.042 0 5.636 0 12.512c0 6.842 5.54 12.414 12.369 12.468z" fill="#FF855E"/><path d="M86.314 5.52a1.32 1.32 0 011.656.216c-.37-.477-1.311-1.66-2.08-2.368-.66-.608-1.716-1.349-2.158-1.652A1.319 1.319 0 0182.276 3.9c.165.089 1.317.72 1.943 1.258.737.634 1.463 1.825 1.633 2.114a1.319 1.319 0 01.462-1.752zm-58.39 18.143c0 .728-.59 1.318-1.319 1.318h5.775l.365-2.637h-6.14c.728 0 1.319.59 1.319 1.319zm33.083 0c0-.729.59-1.319 1.318-1.319H54.59l1.973 2.637h5.763c-.728 0-1.318-.59-1.318-1.319z" fill="#FF855E"/><path d="M64.984 68.631l-12.181-9.463v-3.963c4.355-2.62 7.276-7.39 7.276-12.833V30.346c0-5.508-4.48-9.989-9.988-9.989H38.909l-.77-1.472a2.195 2.195 0 00-3.165-.805 10.88 10.88 0 00-4.823 9.048v15.244c0 1.51.224 3 .667 4.432a1.32 1.32 0 002.519-.78 12.332 12.332 0 01-.55-3.652v-7.746c8.1-1.389 16.384-1.388 24.656.004v7.742c0 6.797-5.53 12.328-12.328 12.328a12.327 12.327 0 01-9.303-4.245l-.004-.005a1.318 1.318 0 00-1.985 1.735c.94 1.082 2.02 2.01 3.199 2.77v4.212L24.84 68.632A15.56 15.56 0 0018.787 81v7.64a1.318 1.318 0 002.637 0V81c0-4.051 1.834-7.8 5.034-10.285l10.939-8.499c1.019 3.18 4.002 5.489 7.515 5.489 3.514 0 6.497-2.31 7.516-5.489l10.939 8.499A12.94 12.94 0 0168.401 81v7.64a1.318 1.318 0 002.637 0V81a15.56 15.56 0 00-6.054-12.368zM32.787 31.953v-4.825a8.245 8.245 0 013.252-6.568l.903 1.727c.227.434.677.707 1.168.707h11.98c4.055 0 7.352 3.298 7.352 7.352v1.612c-8.267-1.343-16.546-1.345-24.655-.005zm12.125 33.114a5.26 5.26 0 01-5.254-5.254v-3.508a14.934 14.934 0 0010.508.153v3.355a5.26 5.26 0 01-5.254 5.254z" fill="#73ACDC"/><path d="M32.468 47.673a1.32 1.32 0 01-1.59-.71c.17.442.673 1.715 1.122 2.537.5.914 1.41 2.14 1.718 2.548a1.319 1.319 0 012.09-1.598c-.077-.088-1.129-1.3-1.615-2.212-.41-.768-.804-2.046-.851-2.199a1.319 1.319 0 01-.874 1.634zm-2.433 32.848c-.728 0-1.319.59-1.319 1.318v6.8a1.318 1.318 0 002.637 0v-6.8c0-.728-.59-1.318-1.318-1.318zm29.755 0c-.729 0-1.32.59-1.32 1.318v6.8a1.318 1.318 0 002.638 0v-6.8c0-.728-.59-1.318-1.319-1.318zM23.329 66.114c-.248 0-.496-.069-.713-.21l3.323 2.488 1.981-1.728-3.73-2.867a1.318 1.318 0 01-.861 2.317z" fill="#73ACDC"/><path fill-rule="evenodd" clip-rule="evenodd" d="M22.469 65.795l.147.11c-.051-.033-.1-.07-.147-.11z" fill="#73ACDC"/><path fill-rule="evenodd" clip-rule="evenodd" d="M2.891 72.136l9.927-8.55c.291-.25.458-.615.458-.998v-3.254a8.325 8.325 0 006.17 0v3.253c0 .384.168.75.459 1l2.564 2.208.147.11a1.316 1.316 0 001.713-.248 1.318 1.318 0 00-.14-1.86l-2.106-1.814v-4.326a8.348 8.348 0 002.65-6.104v-3.597c0-4.617-3.755-8.372-8.372-8.372-4.616 0-8.372 3.756-8.372 8.372v3.597a8.35 8.35 0 002.65 6.104v4.326L1.17 70.138a2.706 2.706 0 00-.94 2.052v4.582c0 1.242.887 2.304 2.11 2.524a79.408 79.408 0 0012.572 1.235 1.319 1.319 0 00.024-2.637 76.792 76.792 0 01-12.07-1.183V72.19c0-.02.01-.04.025-.054zm13.47-29.915a5.742 5.742 0 00-5.735 5.735v3.597a5.742 5.742 0 005.736 5.736 5.742 5.742 0 005.735-5.736v-3.597a5.742 5.742 0 00-5.736-5.735z" fill="#73ACDC"/><path d="M16.23 79.237a1.319 1.319 0 01-1.318 1.294h4.682l-.13-2.637h-4.529a1.318 1.318 0 011.294 1.343zm60.723-16.65c0 .384.167.749.458 1l2.182 1.879a1.316 1.316 0 001.86-.139 1.318 1.318 0 00-.14-1.86l-1.723-1.484v-4.326a8.348 8.348 0 002.65-6.104v-3.597c0-4.617-3.756-8.372-8.372-8.372-4.617 0-8.373 3.756-8.373 8.372v3.597a8.349 8.349 0 002.65 6.104v4.326l-2.106 1.814a1.319 1.319 0 001.72 1.998l2.565-2.209c.291-.25.458-.615.458-.999v-3.253a8.324 8.324 0 006.17 0v3.253zm-3.085-5.298a5.742 5.742 0 01-5.736-5.736v-3.597a5.742 5.742 0 015.736-5.735 5.742 5.742 0 015.736 5.735v3.597a5.742 5.742 0 01-5.736 5.736zm15.191 12.849l-3.409-2.936a1.318 1.318 0 10-1.72 1.998l3.408 2.936a.072.072 0 01.025.054v4.522a76.805 76.805 0 01-12.07 1.183 1.318 1.318 0 00.024 2.636h.026a79.43 79.43 0 0012.546-1.235A2.563 2.563 0 0090 76.772V72.19c0-.79-.343-1.537-.941-2.052z" fill="#73ACDC"/><path d="M80.453 65.785c-.305 0-.61-.105-.86-.32L83.93 69.2a1.318 1.318 0 111.721-1.998l-4.336-3.734a1.318 1.318 0 01-.861 2.317zM65.9 65.656a1.319 1.319 0 01.121-1.844l-3.645 3.198 1.867 1.736 3.49-2.929a1.315 1.315 0 01-1.833-.161zM74 79.237a1.318 1.318 0 011.125-1.328c-.44.035-1.65.129-2.486.154-.973.03-2.493 0-2.493 0v2.628s1.389.021 2.279 0a73.444 73.444 0 002.892-.16A1.318 1.318 0 0174 79.237z" fill="#73ACDC"/><path d="M20.55 11.493a1.76 1.76 0 103.465.595 1.76 1.76 0 00-3.466-.595zm15.081.298c0 .97.789 1.758 1.758 1.758a1.76 1.76 0 001.758-1.758 1.76 1.76 0 00-1.758-1.757 1.76 1.76 0 00-1.758 1.757zm33.845 0a1.76 1.76 0 00-1.758-1.757 1.76 1.76 0 00-1.758 1.757c0 .97.789 1.758 1.758 1.758a1.76 1.76 0 001.758-1.758zm-18.623 0c0 .97.789 1.758 1.758 1.758a1.76 1.76 0 001.758-1.758 1.76 1.76 0 00-1.758-1.757 1.76 1.76 0 00-1.758 1.757z" fill="#FF855E"/></g><defs><clipPath id="clip0"><path fill="#fff" d="M0 0h90v90H0z"/></clipPath></defs></svg>