<svg width="24" height="21" fill="none" xmlns="http://www.w3.org/2000/svg"><path d="M7.681 9.083a6.36 6.36 0 00-1.757-.256c-.888 0-1.629.203-2.203.451.554-2.028 1.884-5.526 4.535-5.92a.63.63 0 00.513-.453L9.35.833A.63.63 0 008.827.04 4.4 4.4 0 008.235 0C5.054 0 1.903 3.32.574 8.075c-.78 2.79-1.01 6.983.913 9.623 1.076 1.477 2.645 2.265 4.664 2.344h.025a5.6 5.6 0 005.374-4.08 5.547 5.547 0 00-.512-4.242 5.597 5.597 0 00-3.357-2.637zM23.28 11.72a5.597 5.597 0 00-3.357-2.637 6.36 6.36 0 00-1.757-.256c-.888 0-1.63.202-2.204.451.554-2.028 1.885-5.526 4.535-5.92a.63.63 0 00.514-.453l.58-2.072A.63.63 0 0021.07.04a4.394 4.394 0 00-.593-.04c-3.181 0-6.332 3.32-7.662 8.075-.78 2.79-1.009 6.983.914 9.623 1.075 1.477 2.645 2.266 4.664 2.344h.025a5.6 5.6 0 005.374-4.08 5.55 5.55 0 00-.512-4.242z" opacity=".5" fill="#000"/></svg>